<?xml version="1.0" encoding="UTF-8" standalone="no"?>
<svg width="3100px" height="2067px" viewBox="0 0 3100 2067" version="1.1" xmlns="http://www.w3.org/2000/svg" xmlns:xlink="http://www.w3.org/1999/xlink" xmlns:sketch="http://www.bohemiancoding.com/sketch/ns">
    <!-- Generator: Sketch 3.0.1 (7597) - http://www.bohemiancoding.com/sketch -->
    <title>Artboard 1</title>
    <description>Created with Sketch.</description>
    <defs></defs>
    <g id="Page-1" stroke="none" stroke-width="1" fill="none" fill-rule="evenodd" sketch:type="MSPage">
        <g id="Artboard-1" sketch:type="MSArtboardGroup" stroke="#FFFFFF">
            <path d="M906.974508,803.757758 L906.974508,836.982694 L906.675118,837.216518 C906.790427,840.667267 906.807973,844.112165 906.729306,847.547376 L906.729306,847.547376 C906.498928,949.348797 823.901909,1031.80365 722.046528,1031.80365 C714.86862,1031.80365 707.786354,1031.39416 700.821815,1030.59726 C708.082205,1031.49141 715.478796,1031.95243 722.987877,1031.95243 C738.08949,1031.95243 834.208604,1046.00509 834.208604,1046.00509 C885.189536,1060.20905 930.912263,1084.21497 969.722084,1117.58503 C1049.43556,1045.57858 1093.85045,941.817034 1091.41305,834.896762 L1091.41305,145.323997 L1089.28593,145.323997 L906.729789,222.814482 L906.729789,590.079701 C960.346128,627.285888 1004.78039,679.174946 1033.26318,743.148353 C1034.13894,745.115342 1034.99612,747.085893 1035.8348,749.05981 L906.974508,803.757758 L906.974508,803.757758 Z" id="Oval-86" fill="#E9DFB5" sketch:type="MSShapeGroup"></path>
            <path d="M866.369526,1731.28958 C678.590681,1810.99697 461.750244,1723.38775 382.042853,1535.60891 L552.044691,1463.44741 C591.898386,1557.33683 700.318605,1601.14144 794.208027,1561.28775 C888.09745,1521.43405 931.902061,1413.01383 892.048366,1319.12441 C864.40508,1253.49608 806.892534,1213.64973 730.591314,1213.64973 C730.591314,1213.64973 712.559919,1211.58291 680.32813,1211.58291 C648.096342,1211.58291 644.385222,1207.50258 634.818716,1206.21452 C506.134167,1165.71397 437.216481,1103.50609 385.922994,1002.83695 C384.94549,1000.91849 552.044688,920.920294 552.044688,920.920294 C581.185487,984.596828 644.687699,1030.1056 719.294212,1030.1056 C734.395825,1030.1056 830.514939,1044.15826 830.514939,1044.15826 C933.662176,1072.89643 1015.28471,1141.75941 1061.67786,1247.12096 C1141.75759,1434.74176 1054.14837,1651.58219 866.369526,1731.28958 Z" id="Oval-85" stroke-width="6" fill="#4990E2" sketch:type="MSShapeGroup"></path>
            <path d="M395.447962,468.519703 C393.488982,469.392699 391.533691,470.284139 389.582286,471.194094 C204.699578,557.406316 124.711346,777.172178 210.923568,962.054885 L378.303446,884.004367 C335.197334,791.563013 375.191451,681.680082 467.632804,638.573971 C468.608507,638.118993 469.586152,637.673274 470.565642,637.236775 L395.447962,468.519703 L395.447962,468.519703 Z" id="Oval-84" stroke-width="8" fill="#E9DFB5" sketch:type="MSShapeGroup"></path>
            <path d="M213.854167,962.642179 L388.145833,999.005815" id="Line-40" stroke-width="8" stroke-linecap="square" sketch:type="MSShapeGroup"></path>
            <path d="M376.854167,883.642179 L551.145833,920.005815" id="Line-39" stroke-width="8" stroke-linecap="square" sketch:type="MSShapeGroup"></path>
            <path d="M468.845238,632.65092 L620.154762,723.997074" id="Line-38" stroke-width="8" stroke-linecap="square" sketch:type="MSShapeGroup"></path>
            <path d="M394.853659,470.65733 L543.146341,554.990663" id="Line-37" stroke-width="8" stroke-linecap="square" sketch:type="MSShapeGroup"></path>
            <path d="M625,722.823997 C625,722.823997 572.438048,746.749307 549.980938,802.680995 C527.523828,858.612683 549.980938,917.823997 549.980938,917.823997" id="Line-36" stroke-width="6" stroke-linecap="square" sketch:type="MSShapeGroup"></path>
            <path d="M1035.98061,748.583346 C1035.14067,746.612724 1034.28219,744.645462 1033.40511,742.681756 C950.307253,556.633655 731.640838,472.962054 545,555.796006 L620.230988,724.230949 C713.551407,682.813974 822.884615,724.649774 864.433542,817.673825 C864.872084,818.655678 865.301321,819.639309 865.721292,820.62462 L1035.98061,748.583346 L1035.98061,748.583346 Z" id="Oval-83" stroke-width="6" fill="#4990E2" sketch:type="MSShapeGroup"></path>
            <path d="M1228.84694,1383.924 L2311.5,1350.324" id="Line-35" stroke-width="6" stroke-linecap="square" sketch:type="MSShapeGroup"></path>
            <path d="M1088.84789,149.672156 L2311.5,1350.324" id="Line-34" stroke-width="6" stroke-linecap="square" sketch:type="MSShapeGroup"></path>
            <path d="M553.854167,1463.074 L731.401815,1451.10449" id="Line-33" stroke-width="6" stroke-linecap="square" sketch:type="MSShapeGroup"></path>
            <path d="M730.993302,1451.5109 C730.993302,1451.5109 742.982649,1478.17694 790.19203,1498.57076 C837.401411,1518.96459 861.152778,1511.00047 861.152778,1511.00047" id="Line-32" stroke-width="6" stroke-linecap="square" sketch:type="MSShapeGroup"></path>
            <path d="M779.846154,1754.98165 L2311.5,1350.324" id="Line-31" stroke-width="6" stroke-linecap="square" sketch:type="MSShapeGroup"></path>
            <path d="M971.854167,1112.65733 L1146.14583,1141.99066" id="Line-30" stroke-width="6" stroke-linecap="square" sketch:type="MSShapeGroup"></path>
            <path d="M1145.05,1141.97917 C1145.05,1141.97917 1238.13333,1234.95708 1230.79401,1409.47917 C1223.45469,1584.00126 1082.15,1676.97917 1082.15,1676.97917" id="Line-6" stroke-width="6" stroke-linecap="square" sketch:type="MSShapeGroup"></path>
            <path d="M1222,282.669235 L1222,898.978759" id="Line-29" stroke-width="6" stroke-linecap="square" sketch:type="MSShapeGroup"></path>
            <path d="M1222.14286,902.672482 C1222.14286,902.672482 1222.90802,957.186397 1208.25873,1034.10718 C1193.60944,1111.02797 1146.93344,1145.86188 1146.93344,1145.86188" id="Line-5" stroke-width="6" stroke-linecap="square" sketch:type="MSShapeGroup"></path>
            <path d="M1211.84732,1016.674 L2311.5,1350.324" id="Line-4" stroke-width="6" stroke-linecap="square" sketch:type="MSShapeGroup"></path>
            <path d="M1221.84628,902.672357 L2311.5,1350.324" id="Line-3" stroke-width="6" stroke-linecap="square" sketch:type="MSShapeGroup"></path>
            <path d="M779.25,732.979402 C779.25,732.979402 638.515158,776.431235 669.052963,896.923503 C699.590768,1017.41577 816.154762,1005.9794 816.154762,1005.9794" id="Line-2" stroke-width="6" stroke-linecap="square" sketch:type="MSShapeGroup"></path>
        </g>
    </g>
</svg>