<?xml version="1.0" encoding="UTF-8" standalone="no"?>
<svg width="250px" height="439px" viewBox="0 0 250 439" version="1.1" xmlns="http://www.w3.org/2000/svg" xmlns:xlink="http://www.w3.org/1999/xlink" xmlns:sketch="http://www.bohemiancoding.com/sketch/ns">
    <!-- Generator: Sketch 3.0.1 (7597) - http://www.bohemiancoding.com/sketch -->
    <title>js-logo-best</title>
    <description>Created with Sketch.</description>
    <defs></defs>
    <g id="Page-1" stroke="none" stroke-width="1" fill="none" fill-rule="evenodd" sketch:type="MSPage">
        <g id="Group" sketch:type="MSLayerGroup" transform="translate(1.000000, 1.000000)">
            <path d="M198.066254,177.760271 L198.066254,186.755384 L197.985199,186.818688 C198.016417,187.752922 198.021167,188.685573 197.999869,189.6156 L197.999869,189.6156 C197.937498,217.176685 175.575694,239.5 148,239.5 C146.056698,239.5 144.139289,239.389137 142.253753,239.173391 C144.219386,239.415468 146.221893,239.540281 148.254855,239.540281 C152.343372,239.540281 178.366064,243.34481 178.366064,243.34481 C192.168325,247.190301 204.547013,253.689517 215.054143,262.72392 C236.635276,243.229339 248.659886,215.137583 248,186.190652 L248,-0.5 L247.424117,-0.5 L198,20.4792931 L198,119.9104 C212.515755,129.983372 224.545611,144.031493 232.256866,161.351257 C232.493964,161.883787 232.726031,162.417282 232.953089,162.951688 L198.066254,177.760271 Z" id="Oval-19" fill="#B8E986" sketch:type="MSShapeGroup"></path>
            <path d="M187.073113,428.874482 C136.235034,450.453966 77.528999,426.735189 55.9495147,375.89711 L101.974757,356.360553 C112.7645,381.779593 142.117517,393.638982 167.536556,382.849239 C192.955596,372.059497 204.814985,342.70648 194.025243,317.28744 C186.541271,299.519635 170.970681,288.731879 150.313362,288.731879 C150.313362,288.731879 145.431654,288.172321 136.70542,288.172321 C127.979185,288.172321 126.97446,287.067638 124.384483,286.718917 C89.5452271,275.75405 70.8868802,258.912274 57,231.657737 C56.7353567,231.138345 101.974757,209.480129 101.974757,209.480129 C109.864156,226.719519 127.05635,239.040281 147.254855,239.040281 C151.343372,239.040281 177.366064,242.84481 177.366064,242.84481 C205.291507,250.625205 227.389486,269.268742 239.949679,297.793674 C261.62997,348.588963 237.911192,407.294998 187.073113,428.874482 Z" id="Oval-48" fill="#4990E2" sketch:type="MSShapeGroup"></path>
            <path d="M59.5787306,87 C59.0483686,87.2363496 58.5190052,87.4776925 57.9906938,87.7240481 C7.93669688,111.06461 -13.7188208,170.562656 9.62174129,220.616653 L54.9371306,199.48574 C43.2668496,174.458741 54.0946084,144.709719 79.1216069,133.039437 C79.3857626,132.91626 79.6504443,132.795588 79.9156253,132.677413 L59.5787306,87 L59.5787306,87 Z" id="Oval-23" stroke="#979797" fill="#B8E986" sketch:type="MSShapeGroup"></path>
            <path d="M10.5,220.5 L57.5,230.5" id="Line" stroke="#979797" stroke-linecap="square" sketch:type="MSShapeGroup"></path>
            <path d="M54.5,199.5 L101.5,209.5" id="Line" stroke="#979797" stroke-linecap="square" sketch:type="MSShapeGroup"></path>
            <path d="M79.5,131.5 L120.5,156.5" id="Line" stroke="#979797" stroke-linecap="square" sketch:type="MSShapeGroup"></path>
            <path d="M59.5,87.5 L101.5,109.5" id="Line" stroke="#979797" stroke-linecap="square" sketch:type="MSShapeGroup"></path>
            <path d="M122,156 C122,156 107.777354,162.502777 101.700724,177.704723 C95.6240945,192.906669 101.700724,209 101.700724,209" id="Line" stroke="#979797" stroke-linecap="square" sketch:type="MSShapeGroup"></path>
            <path d="M234.495777,161.951688 C234.268719,161.417282 234.036652,160.883787 233.799554,160.351257 C211.33611,109.897534 152.225066,87.2069308 101.771344,109.670375 L122.108176,155.347648 C147.335037,144.115926 176.890559,155.461228 188.122281,180.688089 C188.24083,180.954354 188.356864,181.221102 188.470393,181.488305 L234.495777,161.951688 L234.495777,161.951688 Z" id="Oval-49" stroke="#979797" fill="#4990E2" sketch:type="MSShapeGroup"></path>
        </g>
    </g>
</svg>