<?xml version="1.0" encoding="UTF-8" standalone="no"?>
<svg width="1852px" height="1057px" viewBox="0 0 1852 1057" version="1.1" xmlns="http://www.w3.org/2000/svg" xmlns:xlink="http://www.w3.org/1999/xlink" xmlns:sketch="http://www.bohemiancoding.com/sketch/ns">
    <!-- Generator: Sketch 3.0.1 (7597) - http://www.bohemiancoding.com/sketch -->
    <title>Artboard 8</title>
    <description>Created with Sketch.</description>
    <defs></defs>
    <g id="Page-1" stroke="none" stroke-width="1" fill="none" fill-rule="evenodd" sketch:type="MSPage">
        <g id="Artboard-8" sketch:type="MSArtboardGroup">
            <path d="M955.866255,424.953872 C955.887599,424.024636 955.882839,423.092779 955.851553,422.159339 L955.932783,422.096089 L955.932783,397.885451 L955.866387,397.889293 L955.866387,255.961446 L1005.39702,235 L1005.97414,235 L1005.97414,421.531837 C1006.63545,450.454143 994.584926,478.522003 972.957283,498 L972.957283,498 C962.427509,488.973282 950.022144,482.479595 936.190138,478.637375 C936.190138,478.637375 910.111363,474.836082 906.014035,474.836082 C903.976692,474.836082 901.969869,474.711376 900,474.469504 C901.889599,474.685067 903.811141,474.795836 905.758631,474.795836 C933.393753,474.795836 955.80375,452.491511 955.866255,424.953872 L955.866255,424.953872 Z" id="Oval-24" stroke="#FFFFFF" stroke-width="10" fill="#B8E986" sketch:type="MSShapeGroup"></path>
            <path d="M997,386.581908 C996.772471,386.050744 996.539922,385.520486 996.302332,384.991186 C973.792248,334.843555 914.558476,312.29061 864,334.617774 L884.379056,380.017933 C909.658294,368.854351 939.27518,380.130824 950.530222,405.204639 C950.649017,405.469289 950.765292,405.734418 950.879056,406 L997,386.581908 L997,386.581908 Z" id="Oval-40" stroke="#FFFFFF" stroke-width="10" fill="#4990E2" sketch:type="MSShapeGroup"></path>
            <path d="M947.100411,664.03765 C896.271322,685.582049 837.575668,661.901835 816,611.146411 L862.017104,591.641618 C872.804938,617.01933 902.152765,628.859437 927.56731,618.087238 C946.120215,610.22341 957.448236,592.48299 958.015872,573.603969 C958.225807,566.621719 956.963905,559.483727 954.051312,552.632032 C946.568664,534.893115 931.000827,524.122899 910.347161,524.122899 C910.347161,524.122899 905.466316,523.56425 896.741625,523.56425 C888.016934,523.56425 887.012386,522.461363 884.422867,522.113209 C849.589772,511.16617 830.934724,494.351776 817.0503,467.141551 C816.785703,466.623003 862.017103,445 862.017103,445 C869.905107,462.211361 887.094262,474.512091 907.289195,474.512091 C911.376989,474.512091 937.395079,478.310435 937.395079,478.310435 C965.315584,486.078181 987.409656,504.691405 999.967628,533.16996 C1021.64408,583.882663 997.929501,642.493251 947.100411,664.03765 Z" id="Oval-44" stroke="#FFFFFF" stroke-width="10" fill="#4990E2" sketch:type="MSShapeGroup"></path>
            <path d="M867.583217,333 C867.050771,333.237028 866.519329,333.479063 865.988942,333.726125 C815.73832,357.133652 793.997734,416.802398 817.429984,467 L862.923383,445.808462 C851.207259,420.709661 862.077552,390.875288 887.202863,379.171525 C887.468056,379.047994 887.733777,378.926976 888,378.808462 L867.583217,333 L867.583217,333 Z" id="Oval-27" stroke="#FFFFFF" stroke-width="10" fill="#B8E986" sketch:type="MSShapeGroup"></path>
            <circle id="Oval-86" stroke="#979797" stroke-width="6" opacity="0.3" sketch:type="MSShapeGroup" cx="522" cy="493" r="100"></circle>
            <circle id="Oval-85" stroke="#979797" stroke-width="5" opacity="0.3" sketch:type="MSShapeGroup" cx="882" cy="427" r="45"></circle>
            <circle id="Oval-84" stroke="#979797" stroke-width="5" opacity="0.3" sketch:type="MSShapeGroup" cx="859" cy="436" r="50"></circle>
            <circle id="Oval-83" stroke="#979797" stroke-width="5" opacity="0.3" sketch:type="MSShapeGroup" cx="823" cy="439" r="55"></circle>
            <circle id="Oval-82" stroke="#979797" stroke-width="5" opacity="0.3" sketch:type="MSShapeGroup" cx="785" cy="445" r="60"></circle>
            <circle id="Oval-81" stroke="#979797" stroke-width="5" opacity="0.3" sketch:type="MSShapeGroup" cx="748" cy="452" r="65"></circle>
            <circle id="Oval-80" stroke="#979797" stroke-width="5" opacity="0.3" sketch:type="MSShapeGroup" cx="711" cy="459" r="70"></circle>
            <circle id="Oval-79" stroke="#979797" stroke-width="5" opacity="0.3" sketch:type="MSShapeGroup" cx="545" cy="488" r="95"></circle>
            <circle id="Oval-78" stroke="#979797" stroke-width="5" opacity="0.3" sketch:type="MSShapeGroup" cx="575" cy="483" r="90"></circle>
            <circle id="Oval-77" stroke="#979797" stroke-width="5" opacity="0.3" sketch:type="MSShapeGroup" cx="605" cy="478" r="85"></circle>
            <circle id="Oval-76" stroke="#979797" stroke-width="5" opacity="0.3" sketch:type="MSShapeGroup" cx="640" cy="472" r="80"></circle>
            <circle id="Oval-75" stroke="#979797" stroke-width="5" opacity="0.3" sketch:type="MSShapeGroup" cx="680" cy="464" r="75"></circle>
            <ellipse id="Oval-74" stroke="#979797" stroke-width="6" opacity="0.3" sketch:type="MSShapeGroup" transform="translate(1308.807582, 495.941598) rotate(-181.000000) translate(-1308.807582, -495.941598) " cx="1308.80758" cy="495.941598" rx="105.124881" ry="105.124881"></ellipse>
            <ellipse id="Oval-73" stroke="#979797" stroke-width="5" opacity="0.3" sketch:type="MSShapeGroup" transform="translate(931.626542, 571.918307) rotate(-181.000000) translate(-931.626542, -571.918307) " cx="931.626542" cy="571.918307" rx="47.3061962" ry="47.3061962"></ellipse>
            <ellipse id="Oval-72" stroke="#979797" stroke-width="5" opacity="0.3" sketch:type="MSShapeGroup" transform="translate(955.709848, 566.240887) rotate(-181.000000) translate(-955.709848, -566.240887) " cx="955.709848" cy="566.240887" rx="52.5624403" ry="52.5624403"></ellipse>
            <circle id="Oval-71" stroke="#979797" stroke-width="5" opacity="0.3" sketch:type="MSShapeGroup" transform="translate(993.420613, 558.222781) rotate(-181.000000) translate(-993.420613, -558.222781) " cx="993.420613" cy="558.222781" r="57.8186843"></circle>
            <circle id="Oval-70" stroke="#979797" stroke-width="5" opacity="0.3" sketch:type="MSShapeGroup" transform="translate(1033.251903, 551.219069) rotate(-181.000000) translate(-1033.251903, -551.219069) " cx="1033.2519" cy="551.219069" r="63.0749283"></circle>
            <ellipse id="Oval-69" stroke="#979797" stroke-width="5" opacity="0.3" sketch:type="MSShapeGroup" transform="translate(1072.013757, 543.182616) rotate(-181.000000) translate(-1072.013757, -543.182616) " cx="1072.01376" cy="543.182616" rx="68.3311724" ry="68.3311724"></ellipse>
            <ellipse id="Oval-68" stroke="#979797" stroke-width="5" opacity="0.3" sketch:type="MSShapeGroup" transform="translate(1110.775610, 535.146163) rotate(-181.000000) translate(-1110.775610, -535.146163) " cx="1110.77561" cy="535.146163" rx="73.5874164" ry="73.5874164"></ellipse>
            <ellipse id="Oval-67" stroke="#979797" stroke-width="5" opacity="0.3" sketch:type="MSShapeGroup" transform="translate(1284.724276, 501.619018) rotate(-181.000000) translate(-1284.724276, -501.619018) " cx="1284.72428" cy="501.619018" rx="99.8686365" ry="99.8686365"></ellipse>
            <ellipse id="Oval-66" stroke="#979797" stroke-width="5" opacity="0.3" sketch:type="MSShapeGroup" transform="translate(1253.283349, 507.424866) rotate(-181.000000) translate(-1253.283349, -507.424866) " cx="1253.28335" cy="507.424866" rx="94.6123925" ry="94.6123925"></ellipse>
            <circle id="Oval-65" stroke="#979797" stroke-width="5" opacity="0.3" sketch:type="MSShapeGroup" transform="translate(1221.842423, 513.230715) rotate(-181.000000) translate(-1221.842423, -513.230715) " cx="1221.84242" cy="513.230715" r="89.3561485"></circle>
            <ellipse id="Oval-64" stroke="#979797" stroke-width="5" opacity="0.3" sketch:type="MSShapeGroup" transform="translate(1185.164399, 520.179385) rotate(-181.000000) translate(-1185.164399, -520.179385) " cx="1185.1644" cy="520.179385" rx="84.0999044" ry="84.0999044"></ellipse>
            <ellipse id="Oval-63" stroke="#979797" stroke-width="5" opacity="0.3" sketch:type="MSShapeGroup" transform="translate(1143.267626, 529.321968) rotate(-181.000000) translate(-1143.267626, -529.321968) " cx="1143.26763" cy="529.321968" rx="78.8436604" ry="78.8436604"></ellipse>
            <circle id="Oval-62" stroke="#979797" stroke-width="5" opacity="0.3" sketch:type="MSShapeGroup" cx="909.5" cy="573.293709" r="44.5"></circle>
            <circle id="Oval-61" stroke="#979797" stroke-width="5" opacity="0.3" sketch:type="MSShapeGroup" cx="906" cy="425" r="44"></circle>
        </g>
    </g>
</svg>