<?xml version="1.0" encoding="UTF-8" standalone="no"?>
<svg width="694px" height="479px" viewBox="0 0 694 479" version="1.1" xmlns="http://www.w3.org/2000/svg" xmlns:xlink="http://www.w3.org/1999/xlink" xmlns:sketch="http://www.bohemiancoding.com/sketch/ns">
    <!-- Generator: Sketch 3.0.3 (7891) - http://www.bohemiancoding.com/sketch -->
    <title>Rectangle 95 + laptop</title>
    <desc>Created with Sketch.</desc>
    <defs></defs>
    <g id="Page-1" stroke="none" stroke-width="1" fill="none" fill-rule="evenodd" sketch:type="MSPage">
        <g id="Artboard-10" sketch:type="MSArtboardGroup" transform="translate(-27.000000, -105.000000)">
            <g id="Rectangle-95-+-laptop" sketch:type="MSLayerGroup" transform="translate(30.000000, 106.000000)">
                <rect id="Rectangle-95" fill="#FFFFFF" sketch:type="MSShapeGroup" x="79" y="11" width="530" height="368"></rect>
                <g id="laptop" sketch:type="MSShapeGroup">
                    <path d="M75.795857,0 C69.1676236,0 63.7943787,5.36866251 63.7943787,11.9988797 L63.7943787,375.618047 C63.7943787,382.244845 69.1706321,387.616927 75.795857,387.616927 L613.183433,387.616927 C619.811666,387.616927 625.184911,382.248264 625.184911,375.618047 L625.184911,11.9988797 C625.184911,5.37208142 619.808658,0 613.183433,0 L75.795857,0 Z M104.175401,19.7260522 C97.5438456,19.7260522 92.1679074,25.0902393 92.1679074,31.7359141 L92.1679074,355.881012 C92.1679074,362.513876 97.5359669,367.890874 104.175401,367.890874 L584.803889,367.890874 C591.435444,367.890874 596.811383,362.526687 596.811383,355.881012 L596.811383,31.7359141 C596.811383,25.1030506 591.443323,19.7260522 584.803889,19.7260522 L104.175401,19.7260522 Z" id="Rectangle-21" stroke="#D8D8D8" stroke-width="4" fill="#000000"></path>
                    <path d="M4.33808387,449.104166 C-2.59119671,456.001945 -1.98473516,461.5937 5.66463517,461.5937 L682.331677,461.5937 C689.993592,461.5937 690.585783,456.000227 683.658228,449.104166 L629.292981,394.986067 C622.363701,388.088287 611.926745,382.496532 606.003085,382.496532 L81.9932277,382.496532 C76.0598534,382.496532 65.6308855,388.090005 58.7033309,394.986067 L4.33808387,449.104166 Z" id="Rectangle-20" stroke="#979797" fill="#D8D8D8"></path>
                    <path d="M82.2733935,421.374801 L605.723542,421.374801 L585.507597,403.265352 L102.489338,403.265352 L82.2733935,421.374801 Z M106.886768,396.891086 C112.644336,391.163849 121.311967,386.518422 126.24326,386.518422 L561.753675,386.518422 C566.676894,386.518422 575.351165,391.162422 581.110167,396.891086 L584.159867,399.924722 L103.837068,399.924722 L106.886768,396.891086 Z M61.7032075,441.836626 C55.9442054,447.56529 56.4482423,452.20929 62.805719,452.20929 L625.191216,452.20929 C631.559118,452.20929 632.051295,447.563863 626.293728,441.836626 L608.419001,426.056061 L79.5779342,426.056061 L61.7032075,441.836626 Z" id="Rectangle-19" stroke="#979797" fill="#282828"></path>
                    <path d="M-0.48964497,475 L688.489645,475 L688.489645,458.91244 L-0.48964497,458.91244 L-0.48964497,475 Z" id="Rectangle-18" stroke="#979797" fill="#979797"></path>
                </g>
            </g>
        </g>
    </g>
</svg>