<?xml version="1.0" encoding="UTF-8" standalone="no"?>
<svg width="680px" height="455px" viewBox="0 0 680 455" version="1.1" xmlns="http://www.w3.org/2000/svg" xmlns:xlink="http://www.w3.org/1999/xlink" xmlns:sketch="http://www.bohemiancoding.com/sketch/ns">
    <!-- Generator: Sketch 3.0.3 (7891) - http://www.bohemiancoding.com/sketch -->
    <title>Artboard 2</title>
    <desc>Created with Sketch.</desc>
    <defs></defs>
    <g id="Page-1" stroke="none" stroke-width="1" fill="none" fill-rule="evenodd" sketch:type="MSPage">
        <g id="laptop-screen">
            <rect x="70" y="10" width="530" height="350" fill="white" ></rect>
            <text x="110" y="60" font-family="Courier, sans" font-size="20" fill="#002232" > Hello my name is jim sutton </text>
        </g>
        <g id="Artboard-2" sketch:type="MSArtboardGroup">
            <path d="M76.4990297,3 C69.8721486,3 64.5,8.37179947 64.5,15.000261 L64.5,370.999739 C64.5,377.6273 69.8770773,383 76.4990297,383 L602.50097,383 C609.127851,383 614.5,377.628201 614.5,370.999739 L614.5,15.000261 C614.5,8.37269985 609.122923,3 602.50097,3 L76.4990297,3 Z M104.304655,22.3384224 C97.6734708,22.3384224 92.2978339,27.7169842 92.2978339,34.3360509 L92.2978339,351.663949 C92.2978339,358.290056 97.6608363,363.661578 104.304655,363.661578 L574.695345,363.661578 C581.326529,363.661578 586.702166,358.283016 586.702166,351.663949 L586.702166,34.3360509 C586.702166,27.7099436 581.339164,22.3384224 574.695345,22.3384224 L104.304655,22.3384224 Z" id="Rectangle-1" stroke="#D8D8D8" stroke-width="4" fill="#000000" sketch:type="MSShapeGroup"></path>
            <path d="M60.491959,392.316169 L7.22977492,432.683831 C0.441088443,437.829009 1.03524498,442 8.52941069,442 L671.466976,442 C678.973432,442 679.553608,437.827728 672.766612,432.683831 L619.504428,392.316169 C612.715742,387.170991 602.49055,383 596.68708,383 L83.3093071,383 C77.4963202,383 67.2789544,387.172272 60.491959,392.316169 Z" id="Rectangle-3" stroke="#979797" fill="#D8D8D8" sketch:type="MSShapeGroup"></path>
            <path d="M103.389554,397 L83.5837884,412 L83.5837884,412 L596.413209,412 L576.607443,397 L103.389554,397 Z M104.709939,396 L107.697761,393.737157 C113.338509,389.465108 121.830275,386 126.661513,386 L553.335484,386 C558.158812,386 566.657083,389.464043 572.299236,393.737157 L575.287058,396 L104.709939,396 Z M80.9430196,414 L63.4309685,427.262843 C57.7888157,431.535957 58.2826258,435 64.5111102,435 L615.485887,435 C621.724586,435 622.206776,431.534892 616.566029,427.262843 L599.053978,414 L80.9430196,414 L80.9430196,414 Z" id="Rectangle-7" stroke="#979797" fill="#282828" sketch:type="MSShapeGroup"></path>
            <rect id="Rectangle-3" stroke="#979797" fill="#979797" sketch:type="MSShapeGroup" x="2.5" y="440" width="675" height="12"></rect>
        </g>
    </g>
</svg>