<?xml version="1.0" encoding="UTF-8" standalone="no"?>
<svg width="1566px" height="754px" viewBox="0 0 1566 754" version="1.1" xmlns="http://www.w3.org/2000/svg" xmlns:xlink="http://www.w3.org/1999/xlink" xmlns:sketch="http://www.bohemiancoding.com/sketch/ns">
    <!-- Generator: Sketch 3.0.1 (7597) - http://www.bohemiancoding.com/sketch -->
    <title>Artboard 1</title>
    <description>Created with Sketch.</description>
    <defs></defs>
    <g id="Page-1" stroke="none" stroke-width="1" fill="none" fill-rule="evenodd" sketch:type="MSPage">
        <g id="Artboard-1" sketch:type="MSArtboardGroup">
            <path d="M795.5,265.5 L1314.5,209.5" id="Line-6" stroke="#FFFFFF" stroke-width="8" stroke-linecap="square" sketch:type="MSShapeGroup"></path>
            <path d="M186.583217,246 C186.050771,246.237028 185.519329,246.479063 184.988942,246.726125 C134.73832,270.133652 112.997734,329.802398 136.429984,380 L181.923383,358.808462 C170.207259,333.709661 181.077552,303.875288 206.202863,292.171525 C206.468056,292.047994 206.733777,291.926976 207,291.808462 L186.583217,246 L186.583217,246 Z" id="Oval-23" stroke="#FFFFFF" stroke-width="10" fill="#B8E986" sketch:type="MSShapeGroup"></path>
            <path d="M840,244.581908 C839.772471,244.050744 839.539922,243.520486 839.302332,242.991186 C816.792248,192.843555 757.558476,170.29061 707,192.617774 L727.379056,238.017933 C752.658294,226.854351 782.27518,238.130824 793.530222,263.204639 C793.649017,263.469289 793.765292,263.734418 793.879056,264 L840,244.581908 L840,244.581908 Z" id="Oval-36" stroke="#FFFFFF" stroke-width="10" fill="#4990E2" sketch:type="MSShapeGroup"></path>
            <path d="M182.5,359.5 L705.5,302.5" id="Line" stroke="#FFFFFF" stroke-width="8" stroke-linecap="square" sketch:type="MSShapeGroup"></path>
            <path d="M136.5,379.5 L662.5,325.5" id="Line" stroke="#FFFFFF" stroke-width="8" stroke-linecap="square" sketch:type="MSShapeGroup"></path>
            <path d="M209.5,293.5 L728.5,237.5" id="Line" stroke="#FFFFFF" stroke-width="8" stroke-linecap="square" sketch:type="MSShapeGroup"></path>
            <path d="M769,530 L1293.5,473.5" id="Line-2" stroke="#FFFFFF" stroke-width="8" stroke-linecap="square" sketch:type="MSShapeGroup"></path>
            <path d="M851.5,410.5 L1370.5,354.5" id="Line-3" stroke="#FFFFFF" stroke-width="8" stroke-linecap="square" sketch:type="MSShapeGroup"></path>
            <path d="M711.5,300.5 L1230.5,244.5" id="Line-7" stroke="#FFFFFF" stroke-width="8" stroke-linecap="square" sketch:type="MSShapeGroup"></path>
            <path d="M1373.5,354.5 C1373.5,354.5 1360.3544,285.055771 1290.36299,277.85173 C1239.49648,280.852859 1229.5,245.5 1229.5,245.5" id="Line" stroke="#FFFFFF" stroke-width="8" stroke-linecap="square" sketch:type="MSShapeGroup"></path>
            <path d="M710.488466,447.054431 L802,436" id="Line-8" stroke="#FFFFFF" stroke-width="8" stroke-linecap="square" sketch:type="MSShapeGroup"></path>
            <path d="M844.5,244.5 L1365,188" id="Line-4" stroke="#FFFFFF" stroke-width="8" stroke-linecap="square" sketch:type="MSShapeGroup"></path>
            <path d="M1318,208 L1366.5,189.5" id="Line" stroke="#FFFFFF" stroke-width="8" stroke-linecap="square" sketch:type="MSShapeGroup"></path>
            <path d="M738.5,183.5 L1257.5,127.5" id="Line-5" stroke="#FFFFFF" stroke-width="8" stroke-linecap="square" sketch:type="MSShapeGroup"></path>
            <path d="M191.5,243.5 L711.5,191.5" id="Line" stroke="#FFFFFF" stroke-width="8" stroke-linecap="square" sketch:type="MSShapeGroup"></path>
            <path d="M275.866255,337.953872 C275.887599,337.024636 275.882839,336.092779 275.851553,335.159339 L275.932783,335.096089 L275.932783,310.885451 L275.866387,310.889293 L275.866387,168.961446 L325.397018,148 L325.974142,148 L325.974142,334.531837 C326.63545,363.454143 314.584926,391.522003 292.957283,411 L292.957283,411 C282.427509,401.973282 270.022144,395.479595 256.190138,391.637375 C256.190138,391.637375 230.111363,387.836082 226.014035,387.836082 C223.976692,387.836082 221.969869,387.711376 220,387.469504 C221.889599,387.685067 223.811141,387.795836 225.758631,387.795836 C253.393753,387.795836 275.80375,365.491511 275.866255,337.953872 L275.866255,337.953872 Z" id="Oval-19" stroke="#FFFFFF" stroke-width="10" fill="#B8E986" sketch:type="MSShapeGroup"></path>
            <path d="M790.100411,522.03765 C739.271322,543.582049 680.575668,519.901835 659,469.146411 L705.017104,449.641618 C715.804938,475.01933 745.152765,486.859437 770.56731,476.087238 C795.981854,465.315038 807.839146,436.009744 797.051312,410.632032 C789.568664,392.893115 774.000827,382.122899 753.347161,382.122899 C753.347161,382.122899 748.466316,381.56425 739.741625,381.56425 C731.016934,381.56425 730.012386,380.461363 727.422867,380.113209 C692.589772,369.16617 673.934724,352.351776 660.0503,325.141551 C659.785703,324.623003 705.017103,303 705.017103,303 C712.905107,320.211361 730.094262,332.512091 750.289195,332.512091 C754.376989,332.512091 780.395079,336.310435 780.395079,336.310435 C808.315584,344.078181 830.409656,362.691405 842.967628,391.16996 C864.644084,441.882663 840.929501,500.493251 790.100411,522.03765 Z" id="Oval-40" stroke="#FFFFFF" stroke-width="10" fill="#4990E2" sketch:type="MSShapeGroup"></path>
            <path d="M1365,188.581908 C1364.77247,188.050744 1364.53992,187.520486 1364.30233,186.991186 C1341.79225,136.843555 1282.55848,114.29061 1232,136.617774 L1252.37906,182.017933 C1277.65829,170.854351 1307.27518,182.130824 1318.53022,207.204639 C1318.64902,207.469289 1318.76529,207.734418 1318.87906,208 L1365,188.581908 L1365,188.581908 Z" id="Oval-37" stroke="#D8D8D8" stroke-width="10" opacity="0.500757929" fill="#4990E2" sketch:type="MSShapeGroup"></path>
            <path d="M727.5,238.5 C727.5,238.5 714.04184,243.669029 704.5,262.109304 C694.95816,280.54958 704.5,303.5 704.5,303.5" id="Line" stroke="#FFFFFF" stroke-width="8" stroke-linecap="square" sketch:type="MSShapeGroup"></path>
            <path d="M1296.40643,473.015335 C1296.40643,473.015335 1342.71674,459.027992 1363.11887,425.189125 C1383.521,391.350258 1373.5,354.5 1373.5,354.5" id="Line" stroke="#FFFFFF" stroke-width="8" stroke-linecap="square" sketch:type="MSShapeGroup"></path>
            <path d="M1258.5,127.5 C1258.5,127.5 1289.99116,124.196503 1319.03706,139.407985 C1348.08296,154.619467 1364.5,184.5 1364.5,184.5" id="Line" stroke="#FFFFFF" stroke-width="8" stroke-linecap="square" sketch:type="MSShapeGroup"></path>
        </g>
    </g>
</svg>