<?xml version="1.0" encoding="UTF-8" standalone="no"?>
<svg width="121px" height="165px" viewBox="0 0 121 165" version="1.1" xmlns="http://www.w3.org/2000/svg" xmlns:xlink="http://www.w3.org/1999/xlink" xmlns:sketch="http://www.bohemiancoding.com/sketch/ns">
    <!-- Generator: Sketch 3.0.3 (7891) - http://www.bohemiancoding.com/sketch -->
    <title>Artboard 6</title>
    <desc>Created with Sketch.</desc>
    <defs></defs>
    <g id="Page-1" stroke="none" stroke-width="1" fill="none" fill-rule="evenodd" sketch:type="MSPage">
        <g id="Artboard-6" sketch:type="MSArtboardGroup">
            <g id="Group-2" sketch:type="MSLayerGroup" transform="translate(-2.000000, 1.000000)">
                <g id="Group" transform="translate(0.000000, 0.370128)">
                    <path d="M7.38876207,11.1021999 L3.63118631,158.892788 L122.116035,150.888494 L121.873611,1.11022302e-16 L7.38876207,11.1021999 Z" id="Rectangle-8" stroke="#434B70" stroke-width="2" fill="#FFFFFF" sketch:type="MSShapeGroup"></path>
                    <path d="M6.27191659,10.2480331 L2.51434083,158.038622 L115.067116,164.578451 L118.824692,13.6899572 L6.27191659,10.2480331 Z" id="Rectangle-9" fill="#434B70" sketch:type="MSShapeGroup" transform="translate(60.514341, 87.693003) rotate(-2.000000) translate(-60.514341, -87.693003) "></path>
                    <text id="PASSPORT" sketch:type="MSTextLayer" transform="translate(61.994909, 40.231777) rotate(-1.000000) translate(-61.994909, -40.231777) " font-family="Minion Pro" font-size="16" font-weight="normal" sketch:alignment="middle" fill="#FDE685">
                        <tspan x="24.5629093" y="42.7317771">PASSPORT</tspan>
                    </text>
                    <text id="United-States" sketch:type="MSTextLayer" transform="translate(60.629098, 129.428106) rotate(-1.000000) translate(-60.629098, -129.428106) " font-family="Baskerville" font-size="14" font-style="italic" font-weight="normal" sketch:alignment="middle" fill="#FDE685">
                        <tspan x="28.6847623" y="126.428106">United States</tspan>
                        <tspan x="33.8424771" y="141.428106">of America</tspan>
                    </text>
                </g>
                <path d="M42.24992,95.1108895 L27,95.1108895 L27,68.1108895 L43.0286484,68.1108895 C39.8872706,71.9146517 38,76.7923728 38,82.1108895 C38,86.9741487 39.5780034,91.4688455 42.24992,95.1108895 Z M77.75008,95.1108895 L93,95.1108895 L93,68.1108895 L76.9713516,68.1108895 C80.1127294,71.9146517 82,76.7923728 82,82.1108895 C82,86.9741487 80.4219966,91.4688455 77.75008,95.1108895 Z" id="Rectangle-8" stroke="#FDE685" sketch:type="MSShapeGroup"></path>
                <g id="Group" transform="translate(46.000000, 68.110890)" stroke="#FDE685" sketch:type="MSShapeGroup">
                    <polygon id="Star-1" points="14 6 11.648859 7.23606798 12.097887 4.61803399 10.1957739 2.76393202 12.8244295 2.38196601 14 0 15.1755705 2.38196601 17.8042261 2.76393202 15.902113 4.61803399 16.351141 7.23606798 "></polygon>
                    <polygon id="Star-2" points="14 16 11.648859 17.236068 12.097887 14.618034 10.1957739 12.763932 12.8244295 12.381966 14 10 15.1755705 12.381966 17.8042261 12.763932 15.902113 14.618034 16.351141 17.236068 "></polygon>
                    <polygon id="Star-6" points="19 25 16.648859 26.236068 17.097887 23.618034 15.1957739 21.763932 17.8244295 21.381966 19 19 20.1755705 21.381966 22.8042261 21.763932 20.902113 23.618034 21.351141 26.236068 "></polygon>
                    <polygon id="Star-5" points="9 25 6.64885899 26.236068 7.09788697 23.618034 5.19577393 21.763932 7.8244295 21.381966 9 19 10.1755705 21.381966 12.8042261 21.763932 10.902113 23.618034 11.351141 26.236068 "></polygon>
                    <polygon id="Star-3" points="24 16 21.648859 17.236068 22.097887 14.618034 20.1957739 12.763932 22.8244295 12.381966 24 10 25.1755705 12.381966 27.8042261 12.763932 25.902113 14.618034 26.351141 17.236068 "></polygon>
                    <polygon id="Star-4" points="4 16 1.64885899 17.236068 2.09788697 14.618034 0.195773935 12.763932 2.8244295 12.381966 4 10 5.1755705 12.381966 7.80422607 12.763932 5.90211303 14.618034 6.35114101 17.236068 "></polygon>
                </g>
                <circle id="Oval-1" stroke="#FDE685" sketch:type="MSShapeGroup" cx="60" cy="82.1108895" r="18"></circle>
                <circle id="Oval-2" stroke="#FDE685" sketch:type="MSShapeGroup" cx="60" cy="82.1108895" r="22"></circle>
            </g>
        </g>
    </g>
</svg>