<?xml version="1.0" encoding="UTF-8" standalone="no"?>
<svg width="122px" height="474px" viewBox="0 0 122 474" version="1.1" xmlns="http://www.w3.org/2000/svg" xmlns:xlink="http://www.w3.org/1999/xlink" xmlns:sketch="http://www.bohemiancoding.com/sketch/ns">
    <!-- Generator: Sketch 3.0.3 (7891) - http://www.bohemiancoding.com/sketch -->
    <title>Artboard 5</title>
    <desc>Created with Sketch.</desc>
    <defs></defs>
    <g id="Page-1" stroke="none" stroke-width="1" fill="none" fill-rule="evenodd" sketch:type="MSPage">
        <g id="Artboard-5" sketch:type="MSArtboardGroup">
            <g id="Group" sketch:type="MSLayerGroup" transform="translate(59.500000, 237.000000) rotate(94.000000) translate(-59.500000, -237.000000) translate(-177.000000, 168.000000)">
                <path d="M1.67588485,85.3313132 L74.7911899,137.727157 L445.178865,110.749391 L387.270831,58.8948384 L387.197038,57.8927489 L386.671475,57.9287653 L0.989552765,84.3592289 L0.463989334,84.3952453 L0.538659549,85.4092463 L1.06422298,85.3732299 L1.67588485,85.3313132 Z" id="Line-4" stroke="#979797" stroke-linecap="square" fill="#5C4033" sketch:type="MSShapeGroup"></path>
                <path d="M7.5,30.5 L7.5,34.4580673 C9.99364591,37.4216661 7.5,39.7982491 7.5,42.4683401 L7.5,45.1993115 C9.47936583,50.3603764 7.5,51.4097642 7.5,54.5149905 C7.5,59.3549909 9.13426948,65.3216019 7.5,69.0349917 C7.5,71.3660743 9.30825961,73.2049866 7.5,76.0282396 C9.30825961,78.2141685 7.5,78.5198545 7.5,79.7656619 L7.5,82.5" id="Line" stroke="#979797" stroke-linecap="square" sketch:type="MSShapeGroup"></path>
                <path d="M79.4557206,136 L81,82.0932699 L7.14998913,29.2651458 L7.14998915,82.0932708 L7.5,82.3542175 L7.5,30.5 L7.5,34.4580673 C9.99364591,37.4216661 7.5,39.7982491 7.5,42.4683401 L7.5,45.1993115 C9.47936583,50.3603764 7.5,51.4097642 7.5,54.5149905 C7.5,59.3549909 9.13426948,65.3216019 7.5,69.0349917 C8.33314121,70.130403 9.30825961,73.2049866 7.5,76.0282396 C9.30825961,78.2141685 9.12565041,78.3091941 7.5,79.8624549 L7.5,82.3542175 L79.4557206,136 Z" id="Path-10" fill="#FFEBCD" sketch:type="MSShapeGroup"></path>
                <path d="M2.5,26.8662294 L75.5097214,79.7085849 L456.350781,54.3893242 L382.703813,0.341962013 L2.5,26.3327839" id="Line-3" stroke="#979797" stroke-linecap="square" fill="#5C4033" sketch:type="MSShapeGroup"></path>
                <path d="M84.0156942,64.4419482 C77.3895059,64.4419482 73.5985446,69.5793752 75.4689094,75.9325134 C75.4689094,75.9325134 79.8989237,89.326063 79.8989237,95.4902496 C79.8989237,101.327603 75.6930777,113.027321 75.6930777,113.027321 C73.6633436,119.331445 77.3972769,124.441948 84.0156942,124.441948 L451.082488,124.441948 C457.708676,124.441948 464.790324,119.356767 466.813051,113.043375 C466.813051,113.043375 470.961268,101.714133 470.961268,96.0700445 C470.961268,89.712593 466.479701,75.9376414 466.479701,75.9376414 C464.602243,69.5887453 457.700905,64.4419482 451.082488,64.4419482 L84.0156942,64.4419482 Z" id="Rectangle-4" stroke="#979797" fill="#5C4033" sketch:type="MSShapeGroup" transform="translate(272.980512, 94.441948) rotate(-4.000000) translate(-272.980512, -94.441948) "></path>
                <path d="M7.5,82.5 L79.5,135.5" id="Line" stroke="#979797" stroke-linecap="square" sketch:type="MSShapeGroup"></path>
                <text id="Philosophy" sketch:type="MSTextLayer" transform="translate(268.000000, 95.000000) rotate(-4.000000) translate(-268.000000, -95.000000) " font-family="Baskerville" font-size="40" font-weight="normal" sketch:alignment="middle" fill="#FFFFFF">
                    <tspan x="180.001953" y="108">Philosophy</tspan>
                </text>
                <path d="M7.5,43.5 L76.5,93.5" id="Line" stroke="#979797" stroke-linecap="square" opacity="0.220732276" sketch:type="MSShapeGroup"></path>
                <path d="M11.5,68.5 L80.5,118.5" id="Line-14" stroke="#979797" stroke-linecap="square" opacity="0.220732276" sketch:type="MSShapeGroup"></path>
                <path d="M7.5,49.5 L50.5,80.5" id="Line-12" stroke="#979797" stroke-linecap="square" opacity="0.220732276" sketch:type="MSShapeGroup"></path>
                <path d="M30.5,73.5 L80.5,109.5" id="Line-13" stroke="#979797" stroke-linecap="square" opacity="0.220732276" sketch:type="MSShapeGroup"></path>
                <path d="M15.5,78.5 L78.5,124.38911" id="Line-15" stroke="#979797" stroke-linecap="square" opacity="0.220732276" sketch:type="MSShapeGroup"></path>
            </g>
        </g>
    </g>
</svg>