<?xml version="1.0" encoding="UTF-8" standalone="no"?>
<svg width="468px" height="691px" viewBox="0 0 468 691" version="1.1" xmlns="http://www.w3.org/2000/svg" xmlns:xlink="http://www.w3.org/1999/xlink" xmlns:sketch="http://www.bohemiancoding.com/sketch/ns">
    <!-- Generator: Sketch 3.0.1 (7597) - http://www.bohemiancoding.com/sketch -->
    <title>Artboard 1</title>
    <description>Created with Sketch.</description>
    <defs>
        <linearGradient x1="50%" y1="100%" x2="50%" y2="-3.38726964%" id="linearGradient-1">
            <stop stop-color="#A33321" offset="0%"></stop>
            <stop stop-color="#894E49" offset="43.4061195%"></stop>
            <stop stop-color="#894E49" offset="100%"></stop>
        </linearGradient>
        <filter x="-50%" y="-50%" width="200%" height="200%" filterUnits="objectBoundingBox" id="filter-2">
            <feGaussianBlur stdDeviation="6" in="SourceGraphic" result="blur"></feGaussianBlur>
        </filter>
        <filter x="-50%" y="-50%" width="200%" height="200%" filterUnits="objectBoundingBox" id="filter-3">
            <feMorphology radius="3" in="SourceAlpha" operator="dilate" result="shadowSpreadInner1"></feMorphology>
            <feOffset dx="1" dy="0" in="shadowSpreadInner1" result="shadowOffsetInner1"></feOffset>
            <feGaussianBlur stdDeviation="1.5" in="shadowOffsetInner1" result="shadowBlurInner1"></feGaussianBlur>
            <feComposite in="shadowBlurInner1" in2="SourceAlpha" operator="arithmetic" k2="-1" k3="1" result="shadowInnerInner1"></feComposite>
            <feColorMatrix values="0 0 0 0 1   0 0 0 0 1   0 0 0 0 1  0 0 0 0.7 0" in="shadowInnerInner1" type="matrix" result="shadowMatrixInner1"></feColorMatrix>
            <feMerge>
                <feMergeNode in="SourceGraphic"></feMergeNode>
                <feMergeNode in="shadowMatrixInner1"></feMergeNode>
            </feMerge>
        </filter>
        <filter x="-50%" y="-50%" width="200%" height="200%" filterUnits="objectBoundingBox" id="filter-4">
            <feMorphology radius="3" in="SourceAlpha" operator="dilate" result="shadowSpreadInner1"></feMorphology>
            <feOffset dx="1" dy="0" in="shadowSpreadInner1" result="shadowOffsetInner1"></feOffset>
            <feGaussianBlur stdDeviation="1.5" in="shadowOffsetInner1" result="shadowBlurInner1"></feGaussianBlur>
            <feComposite in="shadowBlurInner1" in2="SourceAlpha" operator="arithmetic" k2="-1" k3="1" result="shadowInnerInner1"></feComposite>
            <feColorMatrix values="0 0 0 0 1   0 0 0 0 1   0 0 0 0 1  0 0 0 0.7 0" in="shadowInnerInner1" type="matrix" result="shadowMatrixInner1"></feColorMatrix>
            <feMerge>
                <feMergeNode in="SourceGraphic"></feMergeNode>
                <feMergeNode in="shadowMatrixInner1"></feMergeNode>
            </feMerge>
        </filter>
        <filter x="-50%" y="-50%" width="200%" height="200%" filterUnits="objectBoundingBox" id="filter-5">
            <feGaussianBlur stdDeviation="1" in="SourceGraphic" result="blur"></feGaussianBlur>
        </filter>
        <filter x="-50%" y="-50%" width="200%" height="200%" filterUnits="objectBoundingBox" id="filter-6">
            <feGaussianBlur stdDeviation="2" in="SourceGraphic" result="blur"></feGaussianBlur>
        </filter>
    </defs>
    <g id="Page-1" stroke="none" stroke-width="1" fill="none" fill-rule="evenodd" sketch:type="MSPage">
        <g id="Artboard-1" sketch:type="MSArtboardGroup">
            <path d="M429.588929,328.831105 C418.413658,336.349769 428.28827,347.875478 419.360667,356.952759 C418.254259,358.077717 420.383413,368.226384 419.360667,370.294544 C417.383572,374.292556 415.798116,377.047467 414.468146,385.97676 C413.903925,389.764891 414.992477,395.996598 414.468146,400.562456 C413.538292,408.659608 410.995387,414.997797 409.841678,418 C409.841678,418 405.697903,351.807927 409.841678,328.831105 C413.985452,305.854283 426.898427,323.422009 426.898427,323.422009 C427.560115,323.501723 431.209576,327.740742 429.588929,328.831105 Z M50.3085869,325.448209 C44.2409806,321.625599 39.9066842,325.940181 37.0001105,331.757316 C36.9793215,331.798922 39.8968287,336.710115 41.4595229,341.2747 C43.0154312,345.819465 43.2142359,350.012123 44.2530064,352.603551 C45.9994118,356.960321 47.6761246,371.095996 48.6911878,382.912691 C49.4997314,392.325222 49.8339469,400.319753 49.8437646,400.342563 C52.4326701,406.357701 58.9066619,412.531929 58.9066619,419.229782 C58.9066619,425.888493 61.8133046,437.566791 69.1335106,435.825049 L80,412.991226 L62.279183,324.243229" id="Path" stroke="#979797" fill="#F6D6BA" sketch:type="MSShapeGroup"></path>
            <path d="M304.299197,39.2142595 C297.550435,34.5238471 283.288736,37.1579646 276.841718,33.9358892 C270.684301,30.8585495 253.623507,38.557016 249.000324,33.9358892 C248.36204,33.2978895 219.008263,31.2361091 218.264508,32.299331 C210.995482,42.6906334 142.728195,55.5341902 137.228247,71.3472326 C136.894842,72.3058122 129.79808,73.3379858 129.011704,74.9100385 C122.66053,87.6067372 114.148818,86.9633436 107.714194,99.8268687 C96.8507812,121.544032 97.9580365,116.159489 87.195035,125.878317 C85.6827955,127.243847 78.1020928,131.154386 75.9598646,133.295662 C74.4809001,134.773969 76.518863,139.633453 74.9963122,141.087184 C69.4061329,146.424682 64.1824461,157.915429 56.2145684,163.205173 C51.8380077,166.110701 52.6682585,181.125282 48.9201757,184.871698 C43.1690684,190.620248 36.3891218,258.146516 40.0224487,265.382836 C44.9920107,275.28047 43.9885093,285.423943 48.0017898,293.087696 C51.2171681,299.227777 47.4137201,305.915903 51.6038196,310.104139 C53.7469839,312.24635 49.1699283,323.450598 51.6038196,325.066419 C56.677712,328.434893 60.8107069,339.694753 64.0961258,346.262669 C64.7900514,347.649903 59.037709,344.936082 61.2319322,357.003372 C63.4261555,369.070661 62.3249149,376.211925 63.4261558,376.977291 C66.7213251,379.267445 65.3127957,384.084343 68.0369045,386.695061 C69.9206328,388.500379 65.1272268,410.851332 65.9820156,413.560638 C71.567167,431.263125 64.1370801,444.520119 68.7822292,444.520116 C71.3419501,456.467717 71.0730259,457.538894 74.996314,465.404012 C76.838686,469.097463 74.996314,474.162648 78.4211136,484.539495 C81.1024081,499.802221 87.195036,503.745227 87.195036,519.692688 C87.195036,520.794314 86.1303666,533.317216 87.195036,534.02668 C101.348017,543.457804 111.077612,570.58141 121.818936,586.686231 C123.278289,588.874287 129.826191,590.320251 131.582432,592.844956 C133.902154,596.179702 139.252258,602.855224 142.648229,606.249685 C143.290597,606.891767 143.666888,604.323437 144.575334,604.323437 C146.067383,604.323437 150.104341,608.262342 151.113187,609.225587 C155.085715,613.018553 154.327967,620.017793 158.990981,623.258603 C159.902723,623.892267 165.447191,617.936248 168.464658,620.952373 C173.504756,625.990229 177.114162,629.515262 181.87535,634.274332 C184.120124,636.518109 192.640262,634.601821 195.210764,637.291619 C213.703358,656.642444 219.42381,642.963688 236.157977,654.593989 C242.81474,659.220461 254.219698,647.294193 260.265606,653.337413 C261.209225,654.280612 260.275171,657.283901 261.229158,658.198179 C264.59401,661.422969 266.399085,653.87917 268.523551,653.87917 C270.765955,653.87917 275.521766,660.262581 279.585584,657.438214 C281.729022,655.948518 281.480928,651.936751 283.232781,650.192212 C284.842627,648.589086 291.27455,651.801774 292.875832,650.192212 C298.617992,644.420361 296.12066,650.154128 304.024434,642.607611 C309.650015,637.236312 308.034703,645.413327 313.291098,642.314159 C315.743745,640.86808 316.14117,634.900569 317.608265,632.803311 C319.985402,629.405118 330.888756,631.470537 333.792934,628.442918 C336.436759,625.686717 338.472566,622.960429 341.757297,619.812425 C342.462574,619.136504 342.092682,614.365743 342.720849,613.947151 C345.147528,612.330085 352.856078,612.586865 353.869451,609.673289 C354.840123,606.882486 354.35922,600.828736 356.805275,598.484498 C360.039242,595.385145 365.362796,591.196442 367.6189,586.68624 C371.383278,579.160833 375.712703,578.733474 380.081289,567.753432 C384.449875,556.77339 389.875663,553.837245 392.558338,546.167308 C394.783767,539.804666 397.334932,519.692689 397.334932,519.692689 C397.334932,519.692689 400.035728,495.242342 406.097002,477.86828 C406.547409,476.109114 411.099121,427.216444 411.099121,424.786696 C408.382314,408.128314 411.099121,403.755807 411.099117,385.464821 C411.099112,368.430923 412.620846,357.051536 415.363666,354.422886 C415.875275,353.932573 418.625311,351.774789 418.002143,350.529006 C417.931441,350.387666 413.60073,344.07827 416.033636,341.646446 C421.098057,336.584277 423.621472,326.639159 429.73791,320.52544 C429.794717,320.468659 426.98075,313.553284 427.502874,298.271484 C428.082143,281.317121 432,255.646915 432,251.62446 C432,246.135059 428.965346,215.009153 430.031493,213.987385 C432.242645,211.868272 430.031492,205.049642 430.031492,184.871701 C425.128645,170.877959 413.44616,159.633782 408.390142,152.406045 C407.139525,150.618249 397.310221,136.081021 388.857486,133.295661 C381.508277,130.873936 369.246325,122.988424 367.6189,120.648899 C363.205363,114.304163 364.853844,94.6103317 364.596499,94.3531019 C360.821469,90.5797508 354.166289,77.2875302 352.777927,71.9002764 L358.841532,83.9694225 C349.88574,57.8011375 321.490203,51.1620648 304.299197,39.2142595 Z" id="Path" stroke="#5A474A" fill="url(#linearGradient-1)" sketch:type="MSShapeGroup"></path>
            <path d="M244.912758,474.792457 C244.460166,475.473063 238.471294,476.571745 230.183082,476.944143 C229.176583,476.989366 228.044859,475.355528 226.996424,475.395401 C225.443614,475.454456 220.218387,476.941861 218.619171,477.025429 C216.843687,477.118208 214.900377,475.331865 213.254719,475.395401 C203.028443,475.790218 195.836728,477.501251 194.996027,477.008796 C193.61639,476.20065 192.098316,472.999451 188.87524,474.312181 C187.208498,474.991031 185.392587,477.424033 183.429655,478.398685 C177.067471,481.557695 165.243726,476.644367 160.71669,483.109964 C160.554137,483.342125 157.337148,482.549659 156.869607,484.369909 C155.490807,489.737917 156.147197,501.688563 156.216388,501.754444 C158.695901,504.115301 160.801839,500.331288 162.010566,500.331288 C162.569284,500.331288 156.869607,513.304921 156.869607,511.98058 C156.869607,509.566075 164.862483,510.227355 166.090043,511.98058 C167.087396,513.405018 158.64158,520.804675 160.58793,522.657884 C161.630089,523.650171 167.096344,522.074434 167.245738,522.287801 C167.823514,523.112991 167.580714,531.338274 169.134211,532.10747 C172.384955,533.717038 176.546362,526.589027 178.311727,528.424314 C181.918262,532.173696 180.917516,539.665179 183.932132,541.162023 C189.489768,543.921552 192.826984,527.226146 198.145924,525.516669 C207.823192,522.40645 207.966748,526.420599 211.755698,530.183247 C213.723611,532.137499 216.293379,524.988206 216.583656,524.844075 C218.110812,524.085797 224.713061,524.091435 226.996426,524.091435 C228.420561,524.091435 245.668991,523.693881 246.306163,524.646559 C246.567321,525.037035 250.113124,527.177184 250.900678,526.395096 C251.735604,525.565967 262.994408,523.044396 265.147969,526.120153 C267.503038,529.483706 269.067727,525.002849 271.292032,526.5387 C273.119193,527.800329 273.89307,527.331417 275.383826,528.745538 C276.332397,529.645346 280.311942,523.697935 284.17925,527.676871 C288.046558,531.655807 285.962354,539.128651 289.486093,539.128651 C293.009833,539.128651 291.283731,528.855733 295.812454,532.609578 C300.341178,536.363422 304.384678,541.205493 304.472228,541.162022 C306.136841,540.335492 306.522722,546.827204 310.85414,544.489005 C315.185559,542.150806 313.715567,536.090629 314.758862,535.370249 C317.183636,533.695977 326.197968,540.565067 327.899103,538.135474 C328.935691,536.655 327.075125,533.252919 327.899103,531.616403 C328.108151,531.20121 329.82014,529.38199 331.466437,527.676872 C333.031135,526.05627 335.774555,528.378902 332.808959,522.499871 C332.413386,521.715683 328.414342,517.933978 328.994328,517.533506 C329.757418,517.006603 337.114669,520.12612 337.833474,517.984674 C338.298053,516.600613 335.411755,512.601377 335.816242,512.320515 C340.545901,509.036405 341.058495,519.435881 338.39297,509.174956 C337.68672,506.456248 332.342881,505.817663 331.954813,505.081425 C330.355298,502.046847 334.422439,499.288833 335.73225,497.083708 C337.115211,494.755432 333.600908,496.462344 333.600908,493.759201 C333.600908,492.588999 334.069477,489.789401 335.103108,489.105097 C336.682741,488.059319 333.470061,485.654803 332.514309,485.654803 C329.864896,485.654803 329.250767,482.540286 324.865158,482.540286 C323.811916,482.540286 320.689201,485.133657 320.154445,484.369909 C319.128184,482.904184 319.8408,480.60378 318.393685,479.099348 C314.579549,475.134142 303.787554,480.326027 300.341184,480.326027 C297.48362,480.326027 292.740187,473.551491 292.740187,476.389219 C292.740187,482.382206 286.481678,473.187831 284.179251,476.45783 C278.660629,484.295596 281.39049,474.627854 277.918189,477.025429 C277.358009,477.412225 277.451283,480.223323 276.168944,479.584821 C273.764067,478.387385 271.305857,476.006891 268.860011,474.792457 C268.182784,474.456194 265.254658,477.652173 263.787096,478.278096 C259.527036,480.095037 257.643918,475.183357 254.407215,474.792457" id="Path" fill="#F6D6BA" sketch:type="MSShapeGroup"></path>
            <path d="M400.325972,267.601649 C400.485852,278.569729 400.85247,287.855503 402.224881,289.225399 C402.159522,317.834122 405,362.31629 405,374.693745 C405,387.161391 403.892706,413.663076 402.159518,424.99433 C400.280563,437.278583 400.160732,453.27111 385.305228,463.861759 C384.404875,464.503631 381.884673,476.308231 376.837335,476.983311 C373.220299,477.467089 369.131413,467.278415 367.616053,466.519291 C366.691318,466.056043 365.26245,458.980818 358.367352,453.27111 C352.224498,448.184322 343.193277,444.880662 342.644057,444.055262 C341.969194,443.041038 329.195423,439.281182 327.765495,439.281182 L272.187709,439.281182 C251.697312,439.281181 253.977196,446.008937 249.419075,453.271108 C247.519987,451.330571 250.272989,437.278582 217.169382,437.278588 C204.656029,437.278588 158.339781,431.300427 150.387284,437.278583 C142.434788,443.25674 125.522298,455.569423 115.544536,450.571033 C110.652613,448.12041 110.736632,448.39688 105.969835,446.008938 C104.581359,445.313377 92.8121659,434.547787 91.6884244,433.468289 C71.387307,413.966447 78.5444614,342.155225 82.629396,311.032224 C83.3503305,305.539445 81.1735818,263.466746 82.629396,262.008157 C86.592898,258.037101 88.6966805,250.192621 89.194346,242.772181 C90.8298084,222.848404 96.3419675,207.383951 105.969835,193.510739 C107.747732,190.94889 112.693944,178.891857 114.570338,176.923763 C119.261417,172.003429 125.616878,161.070873 128.14549,156.00401 C131.670257,148.941039 140.168033,143.405776 150.387284,137.617097 C161.671913,131.224937 166.445748,137.35774 170.354896,133.441141 C175.988976,127.796323 201.942057,131.176614 208.741717,124.071264 C217.276093,115.153211 221.144892,116.708292 231.51671,111.991485 C244.122524,106.25872 252.851874,104.717294 256.716047,104.408852 C264.965664,103.75036 280.107103,103.430558 285.783279,107.147602 C323.195311,112.585551 313.858113,107.514447 323.366548,117.005458 C323.975447,117.613242 327.303584,116.308665 327.7655,117.005458 C332.14083,123.60559 350.118808,131.885875 355.839128,137.617099 C361.883533,143.673024 376.912009,159.065063 383.547291,168.400699 C387.241746,173.598683 385.790738,174.916565 388.376627,177.507382 C388.376627,177.507382 398.569228,215.202137 398.569228,224.635056 C400.291666,228.959053 400.097232,251.909594 400.325972,267.601649 Z" id="Path" fill="#F6D6BA" sketch:type="MSShapeGroup"></path>
            <path d="M102.326062,286.710792 C102.074652,278.761987 99.6885149,262.368612 102.326062,257.310844 C104.591112,252.967376 82.347675,235.090478 148.748183,178.425897 C234.000008,163.031483 312.638008,162.743352 343.895012,178.425897 C375.152016,194.108442 384.499759,271.199774 384.632477,271.199774 C385.321657,271.199774 383.584037,270.237596 383.323034,269.599752 C380.808346,263.454306 370.058778,264.794898 364.600937,259.561912 C355.501024,250.836901 379.663123,250.613195 364.600944,250.613195 C346.987345,250.613195 324.534098,249.910149 286.524986,250.613195 C265.244469,239.148305 234.000008,238.480573 220.368125,250.613194 C181.452755,252.310418 158.956845,243.491811 130.431303,250.613195" id="Path" opacity="0.30911847" fill="#E8CDB3" filter="url(#filter-2)" sketch:type="MSShapeGroup"></path>
            <path d="M395.189886,299.687406 C392.05373,297.597356 393.351448,289.296923 390.502717,287.316847 C385.978769,284.172374 382.122646,279.366745 378.600972,276.022704 C377.35548,274.840035 369.563069,274.900213 367.86836,274.060243 C363.828877,272.058101 357.764657,275.995676 353.160225,275.995676 C352.013299,275.995676 342.1647,274.311905 341.452351,275.368159 C339.142098,278.793745 298.301798,292.841686 294.548743,290.247613 C291.414732,288.081417 302.453058,266.605456 308.715548,266.605456 C313.382483,266.605456 328.043024,260.04371 333.287396,257.4322 C340.783092,253.69961 353.397024,261.426993 356.191221,257.4322 C358.847328,253.634831 364.967913,255.969265 368.71477,253.007848 C369.620974,252.291607 375.4151,251.152406 377.198034,253.007848 C379.699706,255.611257 386.670248,257.726027 388.487172,260.781311 C389.512571,264.850969 401.459204,303.865511 395.189886,299.687406 Z" id="Path-3" stroke="#979797" fill="#744247" sketch:type="MSShapeGroup"></path>
            <path d="M135.335033,348.88462 C133.012168,346.492451 142.905165,351.727128 160.74802,346.793761 C179.945769,341.256957 183,339 183,339" id="Line" stroke="#979797" stroke-linecap="square" sketch:type="MSShapeGroup"></path>
            <path d="M117,319 C117,319 123.775157,306 152.648052,306 C184.771606,307.478941 195,319 195,319" id="Line" stroke="#979797" stroke-linecap="square" sketch:type="MSShapeGroup"></path>
            <path d="M121.050964,326.520791 C122.275713,324.218397 139.977924,313.673899 166.420643,311 C190.079013,312.245697 199.999998,323.031457 200,324.776124 C200.000002,326.520791 192.337111,337.583876 166.420642,341 C140.839663,337.583876 119.826215,328.823184 121.050964,326.520791 Z" id="r-eye-4" stroke="#979797" opacity="0.935984142" fill="#FEF9F9" sketch:type="MSShapeGroup" transform="translate(160.000000, 326.000000) scale(-1, 1) translate(-160.000000, -326.000000) "></path>
            <path d="M164.920974,312.871916 C161.342793,312.103187 157.524792,311.458997 153.495511,311 C145.817378,312.299493 140,318.488852 140,325.92817 C140,333.697233 146.344515,340.103073 154.527126,341 C157.97084,340.482172 161.319553,339.869471 164.528209,339.192606 C169.582124,336.598319 173,331.630438 173,325.92817 C173,320.374891 169.758395,315.518124 164.920974,312.871916 L164.920974,312.871916 Z" id="r-eye-5" stroke="#979797" opacity="0.90520056" fill="#6F8286" sketch:type="MSShapeGroup"></path>
            <circle id="Oval-4" opacity="0.45" fill="#000000" sketch:type="MSShapeGroup" cx="157" cy="325" r="6"></circle>
            <path d="M312.335033,349.88462 C310.012168,347.492451 319.905165,352.727128 337.74802,347.793761 C356.945769,342.256957 360,340 360,340" id="Line-3" stroke="#979797" stroke-linecap="square" sketch:type="MSShapeGroup" transform="translate(336.000000, 344.000000) scale(-1, 1) translate(-336.000000, -344.000000) "></path>
            <path d="M299,320 C299,320 305.775157,307 334.648052,307 C366.771606,308.478941 377,320 377,320" id="Line-2" stroke="#979797" stroke-linecap="square" sketch:type="MSShapeGroup" transform="translate(339.000000, 313.500000) scale(-1, 1) translate(-339.000000, -313.500000) "></path>
            <path d="M296.048766,327.520791 C297.273473,325.218397 315.979968,314.673899 342.421786,312 C366.079351,313.245697 375.999998,324.031457 376,325.776124 C376.000002,327.520791 368.337372,338.583876 342.421785,342 C316.841678,338.583876 294.824059,329.823184 296.048766,327.520791 Z" id="r-eye" stroke="#979797" opacity="0.935984142" fill="#FEF9F9" sketch:type="MSShapeGroup"></path>
            <path d="M321.204945,315.658084 C327.023701,314.06719 333.605442,312.738325 340.755564,312 C342.05934,312.070101 343.321192,312.169934 344.541763,312.296291 C348.468698,315.350704 351,320.153885 351,325.555778 C351,333.766962 345.151242,340.594781 337.442408,342 C333.450023,341.376256 329.568892,340.628448 325.877741,339.80479 C321.151895,336.86591 318,331.583591 318,325.555778 C318,321.851362 319.190396,318.428502 321.204945,315.658084 L321.204945,315.658084 Z" id="r-eye-2" stroke="#979797" opacity="0.90520056" fill="#6F8286" sketch:type="MSShapeGroup"></path>
            <circle id="Oval-8" opacity="0.450851213" fill="#000000" sketch:type="MSShapeGroup" cx="335" cy="326" r="6"></circle>
            <circle id="Oval-8" opacity="0.561683769" fill="white" filter="url(#filter-3)" sketch:type="MSShapeGroup" cx="344" cy="326" r="6"></circle>
            <circle id="Oval-9" opacity="0.558010728" fill="white" filter="url(#filter-4)" sketch:type="MSShapeGroup" cx="166" cy="326" r="6"></circle>
            <g id="Path-19-+-Line" sketch:type="MSLayerGroup" transform="translate(158.000000, 482.000000)" stroke="#313131">
                <path d="M50.0891237,0.0757052832 C25.9901066,4.22873957 13,9.60660454 13,9.60660454 C13,9.60660454 27.3869035,27.3926197 42.6288024,32.7455094 C57.8707012,38.098399 83.1852452,39.9835989 83.1852452,39.9835989 C83.1852452,39.9835989 113.491795,40.5750353 127.010611,34.6546874 C140.529427,28.7343396 161,11.4878083 161,11.4878083 C161,11.4878083 136.192011,5.21964205 114.625756,1.06660776 C102.965975,2.36534887 84.0058491,4.22873962 84.0058491,4.22873962 C84.0058491,4.22873962 59.8232807,-0.661543578 50.0891237,0.0757052832 Z" id="Path-19" opacity="0.595673974" fill="#C35480" sketch:type="MSShapeGroup"></path>
                <path d="M1,6 C1,6 62.9879646,16.9462391 86.5,17.9314543 C110.012035,18.9166694 172,8.95564551 172,8.95564551" id="Line" stroke-width="2" stroke-linecap="square" opacity="0.757054571" sketch:type="MSShapeGroup"></path>
            </g>
            <path d="M80.1069894,335.0911 C80.1069895,276.069719 80.1069895,259.176374 86.028525,256.187133 C87.0291907,257.63517 86.1587262,266.350378 86.6134392,269.821472 C89.0354672,288.310253 86.4706188,325.75518 88.613439,355.909851 C84.68659,428.420758 130.625169,450.959737 126.281332,450.959732 C68.2004327,446.455795 76.8840104,376.294675 80.1069894,335.0911 Z" id="Path-45" fill="#EACDB4" sketch:type="MSShapeGroup"></path>
            <path d="M232.999998,430.854675 C240.020466,420.170441 218.734491,418.785109 212.586399,416.584662 C206.438306,414.384215 197.030975,397.283432 206.272595,386.64813 C215.514214,376.012828 220.280435,369.846041 227.566595,356.731086 C227.566595,346.484019 230.214492,313.937094 219.67954,333.429586 C211.230695,377.44143 180.717621,384.937897 183.970017,416.584663 C187.222412,448.23143 234.000001,433.269904 232.999998,430.854675 Z" id="Path-46" fill="#EACDB4" filter="url(#filter-5)" sketch:type="MSShapeGroup"></path>
            <g id="Group" sketch:type="MSLayerGroup" transform="translate(191.000000, 328.000000)" stroke="#313131">
                <path d="M23.1834105,98.4976519 C28.4271447,99.3276728 32.8197732,99.1061584 32.9946207,98.0028857 C33.1694683,96.899613 29.0603238,95.3323689 23.8165895,94.5023481 C18.5728553,93.6723272 14.1802268,93.8938416 14.0053793,94.9971143 C13.8305317,96.100387 17.9396762,97.6676311 23.1834105,98.4976519 L23.1834105,98.4976519 Z" id="Oval-5" fill="#303030" sketch:type="MSShapeGroup"></path>
                <path d="M91.7809563,97.5790397 C97.0253212,96.8125224 101.150931,95.2603195 100.995763,94.1120976 C100.840595,92.9638757 96.4634086,92.654443 91.2190437,93.4209603 C85.9746788,94.1874776 81.8490695,95.7396805 82.0042374,96.8879024 C82.1594052,98.0361243 86.5365914,98.345557 91.7809563,97.5790397 L91.7809563,97.5790397 Z" id="Oval-6" fill="#303030" sketch:type="MSShapeGroup"></path>
                <path d="M33,97 C33,97 38.3543914,107 58.8479326,107 C79.3414738,107 82,97 82,97" id="Path-25" sketch:type="MSShapeGroup"></path>
                <path d="M80.4172878,2 C81.6384255,10.1489178 78.2350334,19.7857661 81.3666702,27.5395148 C85.6595433,38.1684165 112.628081,74.916821 113.201407,77.7463311 C117.339063,98.1667011 105.032841,109.737492 84.7534091,106.444326" id="Path" sketch:type="MSShapeGroup"></path>
                <path d="M0.417287827,0 C1.63842551,8.14891779 -1.7649666,17.7857661 1.36667016,25.5395148 C5.65954331,36.1684165 32.6280809,72.916821 33.2014074,75.7463311 C37.3390632,96.1667011 25.0328412,107.737492 4.75340908,104.444326" id="Path-5" sketch:type="MSShapeGroup" transform="translate(17.000000, 52.500000) scale(-1, 1) translate(-17.000000, -52.500000) "></path>
            </g>
            <path d="M194.117117,273.654657 C190.445611,272.350669 191.677943,267.243604 187.917,265.721901 C170.325933,258.604439 148.385006,262.015414 137.535277,273.220532 C134.010809,276.860445 124.708653,272.954779 120.201977,274.438589 C118.379601,275.038601 108.505446,281.76996 108.018886,282.686969 C107.159658,284.306341 104.189032,281.600281 102.474818,282.293864 C101.023344,282.88114 97.3478556,297.301524 99.8506251,299.770538 C101.264003,301.164854 101.924398,295.766724 102.139863,295.34041 C102.940181,293.756928 113.84977,289.422226 115.468728,288.829671 C118.04404,287.88708 121.122282,290.060944 123.652005,289.135039 C125.46554,288.471266 128.549502,286.195928 129.789751,285.022814 C132.378435,282.574255 145.6977,286.87215 151.507484,284.006436 C152.751265,283.392934 194.351409,291.265765 196.926112,292.562464 C197.440339,292.821445 201.333463,295.594139 201.971214,294.694349 C211.752058,280.894766 195.037825,280.854964 191.316207,269.147047" id="Path" stroke="#979797" fill="#744247" sketch:type="MSShapeGroup"></path>
            <path d="M196.8551,515.04638 C179.466109,507.752286 180.760777,494.424109 170.790728,514.401547 C169.226084,517.536696 169.440156,524.679246 170.790728,528.063265 C172.391391,532.073913 178.020408,524.758882 180.105834,526.796551 C181.948171,528.596696 181.157534,534.395816 184.232766,535.536771 C188.213177,537.013561 191.15365,526.916886 193.180645,524.886096 C195.331795,522.730917 201.933039,522.066427 202.809423,519.929625 C203.38136,518.535127 201.629965,518.093301 201.081489,517.726263 L196.8551,515.04638 Z" id="Path" fill="#E9CDB4" filter="url(#filter-6)" sketch:type="MSShapeGroup"></path>
        </g>
    </g>
</svg>