<?xml version="1.0" encoding="UTF-8" standalone="no"?>
<svg width="468px" height="691px" viewBox="0 0 468 691" version="1.1" xmlns="http://www.w3.org/2000/svg" xmlns:xlink="http://www.w3.org/1999/xlink" xmlns:sketch="http://www.bohemiancoding.com/sketch/ns">
    <!-- Generator: Sketch 3.2.2 (9983) - http://www.bohemiancoding.com/sketch -->
    <title>Artboard 3</title>
    <desc>Created with Sketch.</desc>
    <defs>
        <linearGradient x1="50%" y1="100%" x2="50%" y2="-3.38726964%" id="linearGradient-1">
            <stop stop-color="#A33321" offset="0%"></stop>
            <stop stop-color="#894E49" offset="43.4061195%"></stop>
            <stop stop-color="#894E49" offset="100%"></stop>
        </linearGradient>
        <filter x="-50%" y="-50%" width="200%" height="200%" filterUnits="objectBoundingBox" id="filter-2">
            <feGaussianBlur stdDeviation="6" color-interpolation-filters="sRGB" in="SourceGraphic" result="blur"></feGaussianBlur>
        </filter>
        <filter x="-50%" y="-50%" width="200%" height="200%" filterUnits="objectBoundingBox" id="filter-3">
            <feMorphology radius="3" in="SourceAlpha" operator="dilate" result="shadowSpreadInner1"></feMorphology>
            <feOffset dx="1" dy="0" in="shadowSpreadInner1" result="shadowOffsetInner1"></feOffset>
            <feGaussianBlur stdDeviation="1.5" color-interpolation-filters="sRGB" in="shadowOffsetInner1" result="shadowBlurInner1"></feGaussianBlur>
            <feComposite in="shadowBlurInner1" in2="SourceAlpha" operator="arithmetic" k2="-1" k3="1" result="shadowInnerInner1"></feComposite>
            <feColorMatrix values="0 0 0 0 1   0 0 0 0 1   0 0 0 0 1  0 0 0 0.7 0" in="shadowInnerInner1" type="matrix" result="shadowMatrixInner1"></feColorMatrix>
            <feMerge>
                <feMergeNode in="SourceGraphic"></feMergeNode>
                <feMergeNode in="shadowMatrixInner1"></feMergeNode>
            </feMerge>
        </filter>
        <filter x="-50%" y="-50%" width="200%" height="200%" filterUnits="objectBoundingBox" id="filter-4">
            <feMorphology radius="3" in="SourceAlpha" operator="dilate" result="shadowSpreadInner1"></feMorphology>
            <feOffset dx="1" dy="0" in="shadowSpreadInner1" result="shadowOffsetInner1"></feOffset>
            <feGaussianBlur stdDeviation="1.5" color-interpolation-filters="sRGB" in="shadowOffsetInner1" result="shadowBlurInner1"></feGaussianBlur>
            <feComposite in="shadowBlurInner1" in2="SourceAlpha" operator="arithmetic" k2="-1" k3="1" result="shadowInnerInner1"></feComposite>
            <feColorMatrix values="0 0 0 0 1   0 0 0 0 1   0 0 0 0 1  0 0 0 0.7 0" in="shadowInnerInner1" type="matrix" result="shadowMatrixInner1"></feColorMatrix>
            <feMerge>
                <feMergeNode in="SourceGraphic"></feMergeNode>
                <feMergeNode in="shadowMatrixInner1"></feMergeNode>
            </feMerge>
        </filter>
        <filter x="-50%" y="-50%" width="200%" height="200%" filterUnits="objectBoundingBox" id="filter-5">
            <feGaussianBlur stdDeviation="1" color-interpolation-filters="sRGB" in="SourceGraphic" result="blur"></feGaussianBlur>
        </filter>
        <filter x="-50%" y="-50%" width="200%" height="200%" filterUnits="objectBoundingBox" id="filter-6">
            <feGaussianBlur stdDeviation="2" color-interpolation-filters="sRGB" in="SourceGraphic" result="blur"></feGaussianBlur>
        </filter>
    </defs>
    <g id="Page-1" stroke="none" stroke-width="1" fill="none" fill-rule="evenodd" sketch:type="MSPage">
        <g id="Artboard-3" sketch:type="MSArtboardGroup">
            <g id="Group" sketch:type="MSLayerGroup" transform="translate(37.000000, 32.000000)">
                <g sketch:type="MSShapeGroup">
                    <path d="M392.588929,296.831105 C381.413658,304.349769 391.28827,315.875478 382.360667,324.952759 C381.254259,326.077717 383.383413,336.226384 382.360667,338.294544 C380.383572,342.292556 378.798116,345.047467 377.468146,353.97676 C376.903925,357.764891 377.992477,363.996598 377.468146,368.562456 C376.538292,376.659608 373.995387,382.997797 372.841678,386 C372.841678,386 368.697903,319.807927 372.841678,296.831105 C376.985452,273.854283 389.898427,291.422009 389.898427,291.422009 C390.560115,291.501723 394.209576,295.740742 392.588929,296.831105 Z M13.3085869,293.448209 C7.24098057,289.625599 2.90668422,293.940181 0.00011050573,299.757316 C-0.0206785277,299.798922 2.89682867,304.710115 4.4595229,309.2747 C6.01543115,313.819465 6.21423588,318.012123 7.25300643,320.603551 C8.99941182,324.960321 10.6761246,339.095996 11.6911878,350.912691 C12.4997314,360.325222 12.8339469,368.319753 12.8437646,368.342563 C15.4326701,374.357701 21.9066619,380.531929 21.9066619,387.229782 C21.9066619,393.888493 24.8133046,405.566791 32.1335106,403.825049 L43,380.991226 L25.279183,292.243229 L13.3085869,293.448209 Z" id="Path-10" stroke="#979797" fill="#F6D6BA"></path>
                    <path d="M267.299197,7.21425951 C260.550435,2.52384707 246.288736,5.15796464 239.841718,1.93588915 C233.684301,-1.14145045 216.623507,6.55701601 212.000324,1.93588915 C211.36204,1.29788954 182.008263,-0.763890863 181.264508,0.299330991 C173.995482,10.6906334 105.728195,23.5341902 100.228247,39.3472326 C99.8948421,40.3058122 92.7980802,41.3379858 92.0117041,42.9100385 C85.6605303,55.6067372 77.148818,54.9633436 70.7141939,67.8268687 C59.8507812,89.544032 60.9580365,84.1594886 50.195035,93.8783172 C48.6827955,95.2438468 41.1020928,99.1543863 38.9598646,101.295662 C37.4809001,102.773969 39.518863,107.633453 37.9963122,109.087184 C32.4061329,114.424682 27.1824461,125.915429 19.2145684,131.205173 C14.8380077,134.110701 15.6682585,149.125282 11.9201757,152.871698 C6.16906838,158.620248 -0.610878171,226.146516 3.02244868,233.382836 C7.99201066,243.28047 6.98850935,253.423943 11.0017898,261.087696 C14.2171681,267.227777 10.4137201,273.915903 14.6038196,278.104139 C16.7469839,280.24635 12.1699283,291.450598 14.6038196,293.066419 C19.677712,296.434893 23.8107069,307.694753 27.0961258,314.262669 C27.7900514,315.649903 22.037709,312.936082 24.2319322,325.003372 C26.4261555,337.070661 25.3249149,344.211925 26.4261558,344.977291 C29.7213251,347.267445 28.3127957,352.084343 31.0369045,354.695061 C32.9206328,356.500379 28.1272268,378.851332 28.9820156,381.560638 C34.567167,399.263125 27.1370801,412.520119 31.7822292,412.520116 C34.3419501,424.467717 34.0730259,425.538894 37.996314,433.404012 C39.838686,437.097463 37.996314,442.162648 41.4211136,452.539495 C44.1024081,467.802221 50.195036,471.745227 50.195036,487.692688 C50.195036,488.794314 49.1303666,501.317216 50.195036,502.02668 C64.3480168,511.457804 74.077612,538.58141 84.8189361,554.686231 C86.2782894,556.874287 92.8261915,558.320251 94.5824318,560.844956 C96.9021536,564.179702 102.252258,570.855224 105.648229,574.249685 C106.290597,574.891767 106.666888,572.323437 107.575334,572.323437 C109.067383,572.323437 113.104341,576.262342 114.113187,577.225587 C118.085715,581.018553 117.327967,588.017793 121.990981,591.258603 C122.902723,591.892267 128.447191,585.936248 131.464658,588.952373 C136.504756,593.990229 140.114162,597.515262 144.87535,602.274332 C147.120124,604.518109 155.640262,602.601821 158.210764,605.291619 C176.703358,624.642444 182.42381,610.963688 199.157977,622.593989 C205.81474,627.220461 217.219698,615.294193 223.265606,621.337413 C224.209225,622.280612 223.275171,625.283901 224.229158,626.198179 C227.59401,629.422969 229.399085,621.87917 231.523551,621.87917 C233.765955,621.87917 238.521766,628.262581 242.585584,625.438214 C244.729022,623.948518 244.480928,619.936751 246.232781,618.192212 C247.842627,616.589086 254.27455,619.801774 255.875832,618.192212 C261.617992,612.420361 259.12066,618.154128 267.024434,610.607611 C272.650015,605.236312 271.034703,613.413327 276.291098,610.314159 C278.743745,608.86808 279.14117,602.900569 280.608265,600.803311 C282.985402,597.405118 293.888756,599.470537 296.792934,596.442918 C299.436759,593.686717 301.472566,590.960429 304.757297,587.812425 C305.462574,587.136504 305.092682,582.365743 305.720849,581.947151 C308.147528,580.330085 315.856078,580.586865 316.869451,577.673289 C317.840123,574.882486 317.35922,568.828736 319.805275,566.484498 C323.039242,563.385145 328.362796,559.196442 330.6189,554.68624 C334.383278,547.160833 338.712703,546.733474 343.081289,535.753432 C347.449875,524.77339 352.875663,521.837245 355.558338,514.167308 C357.783767,507.804666 360.334932,487.692689 360.334932,487.692689 C360.334932,487.692689 363.035728,463.242342 369.097002,445.86828 C369.547409,444.109114 374.099121,395.216444 374.099121,392.786696 C371.382314,376.128314 374.099121,371.755807 374.099117,353.464821 C374.099112,336.430923 375.620846,325.051536 378.363666,322.422886 C378.875275,321.932573 381.625311,319.774789 381.002143,318.529006 C380.931441,318.387666 376.60073,312.07827 379.033636,309.646446 C384.098057,304.584277 386.621472,294.639159 392.73791,288.52544 C392.794717,288.468659 389.98075,281.553284 390.502874,266.271484 C391.082143,249.317121 395,223.646915 395,219.62446 C395,214.135059 391.965346,183.009153 393.031493,181.987385 C395.242645,179.868272 393.031492,173.049642 393.031492,152.871701 C388.128645,138.877959 376.44616,127.633782 371.390142,120.406045 C370.139525,118.618249 360.310221,104.081021 351.857486,101.295661 C344.508277,98.8739364 332.246325,90.9884236 330.6189,88.6488994 C326.205363,82.3041633 327.853844,62.6103317 327.596499,62.3531019 C323.821469,58.5797508 317.166289,45.2875302 315.777927,39.9002764 L321.841532,51.9694225 C312.88574,25.8011375 284.490203,19.1620648 267.299197,7.21425951 Z" id="Path-2" stroke="#5A474A" fill="url(#linearGradient-1)"></path>
                    <path d="M207.912758,442.792457 C207.460166,443.473063 201.471294,444.571745 193.183082,444.944143 C192.176583,444.989366 191.044859,443.355528 189.996424,443.395401 C188.443614,443.454456 183.218387,444.941861 181.619171,445.025429 C179.843687,445.118208 177.900377,443.331865 176.254719,443.395401 C166.028443,443.790218 158.836728,445.501251 157.996027,445.008796 C156.61639,444.20065 155.098316,440.999451 151.87524,442.312181 C150.208498,442.991031 148.392587,445.424033 146.429655,446.398685 C140.067471,449.557695 128.243726,444.644367 123.71669,451.109964 C123.554137,451.342125 120.337148,450.549659 119.869607,452.369909 C118.490807,457.737917 119.147197,469.688563 119.216388,469.754444 C121.695901,472.115301 123.801839,468.331288 125.010566,468.331288 C125.569284,468.331288 119.869607,481.304921 119.869607,479.98058 C119.869607,477.566075 127.862483,478.227355 129.090043,479.98058 C130.087396,481.405018 121.64158,488.804675 123.58793,490.657884 C124.630089,491.650171 130.096344,490.074434 130.245738,490.287801 C130.823514,491.112991 130.580714,499.338274 132.134211,500.10747 C135.384955,501.717038 139.546362,494.589027 141.311727,496.424314 C144.918262,500.173696 143.917516,507.665179 146.932132,509.162023 C152.489768,511.921552 155.826984,495.226146 161.145924,493.516669 C170.823192,490.40645 170.966748,494.420599 174.755698,498.183247 C176.723611,500.137499 179.293379,492.988206 179.583656,492.844075 C181.110812,492.085797 187.713061,492.091435 189.996426,492.091435 C191.420561,492.091435 208.668991,491.693881 209.306163,492.646559 C209.567321,493.037035 213.113124,495.177184 213.900678,494.395096 C214.735604,493.565967 225.994408,491.044396 228.147969,494.120153 C230.503038,497.483706 232.067727,493.002849 234.292032,494.5387 C236.119193,495.800329 236.89307,495.331417 238.383826,496.745538 C239.332397,497.645346 243.311942,491.697935 247.17925,495.676871 C251.046558,499.655807 248.962354,507.128651 252.486093,507.128651 C256.009833,507.128651 254.283731,496.855733 258.812454,500.609578 C263.341178,504.363422 267.384678,509.205493 267.472228,509.162022 C269.136841,508.335492 269.522722,514.827204 273.85414,512.489005 C278.185559,510.150806 276.715567,504.090629 277.758862,503.370249 C280.183636,501.695977 289.197968,508.565067 290.899103,506.135474 C291.935691,504.655 290.075125,501.252919 290.899103,499.616403 C291.108151,499.20121 292.82014,497.38199 294.466437,495.676872 C296.031135,494.05627 298.774555,496.378902 295.808959,490.499871 C295.413386,489.715683 291.414342,485.933978 291.994328,485.533506 C292.757418,485.006603 300.114669,488.12612 300.833474,485.984674 C301.298053,484.600613 298.411755,480.601377 298.816242,480.320515 C303.545901,477.036405 304.058495,487.435881 301.39297,477.174956 C300.68672,474.456248 295.342881,473.817663 294.954813,473.081425 C293.355298,470.046847 297.422439,467.288833 298.73225,465.083708 C300.115211,462.755432 296.600908,464.462344 296.600908,461.759201 C296.600908,460.588999 297.069477,457.789401 298.103108,457.105097 C299.682741,456.059319 296.470061,453.654803 295.514309,453.654803 C292.864896,453.654803 292.250767,450.540286 287.865158,450.540286 C286.811916,450.540286 283.689201,453.133657 283.154445,452.369909 C282.128184,450.904184 282.8408,448.60378 281.393685,447.099348 C277.579549,443.134142 266.787554,448.326027 263.341184,448.326027 C260.48362,448.326027 255.740187,441.551491 255.740187,444.389219 C255.740187,450.382206 249.481678,441.187831 247.179251,444.45783 C241.660629,452.295596 244.39049,442.627854 240.918189,445.025429 C240.358009,445.412225 240.451283,448.223323 239.168944,447.584821 C236.764067,446.387385 234.305857,444.006891 231.860011,442.792457 C231.182784,442.456194 228.254658,445.652173 226.787096,446.278096 C222.527036,448.095037 220.643918,443.183357 217.407215,442.792457" id="Path-4" fill="#F6D6BA"></path>
                    <path d="M363.325972,235.601649 C363.485852,246.569729 363.85247,255.855503 365.224881,257.225399 C365.159522,285.834122 368,330.31629 368,342.693745 C368,355.161391 366.892706,381.663076 365.159518,392.99433 C363.280563,405.278583 363.160732,421.27111 348.305228,431.861759 C347.404875,432.503631 344.884673,444.308231 339.837335,444.983311 C336.220299,445.467089 332.131413,435.278415 330.616053,434.519291 C329.691318,434.056043 328.26245,426.980818 321.367352,421.27111 C315.224498,416.184322 306.193277,412.880662 305.644057,412.055262 C304.969194,411.041038 292.195423,407.281182 290.765495,407.281182 L235.187709,407.281182 C214.697312,407.281181 216.977196,414.008937 212.419075,421.271108 C210.519987,419.330571 213.272989,405.278582 180.169382,405.278588 C167.656029,405.278588 121.339781,399.300427 113.387284,405.278583 C105.434788,411.25674 88.5222981,423.569423 78.5445355,418.571033 C73.652613,416.12041 73.7366324,416.39688 68.969835,414.008938 C67.5813594,413.313377 55.8121659,402.547787 54.6884244,401.468289 C34.387307,381.966447 41.5444614,310.155225 45.629396,279.032224 C46.3503305,273.539445 44.1735818,231.466746 45.629396,230.008157 C49.592898,226.037101 51.6966805,218.192621 52.194346,210.772181 C53.8298084,190.848404 59.3419675,175.383951 68.969835,161.510739 C70.7477323,158.94889 75.6939442,146.891857 77.5703384,144.923763 C82.2614175,140.003429 88.6168778,129.070873 91.14549,124.00401 C94.6702571,116.941039 103.168033,111.405776 113.387284,105.617097 C124.671913,99.2249373 129.445748,105.35774 133.354896,101.441141 C138.988976,95.7963232 164.942057,99.176614 171.741717,92.0712636 C180.276093,83.1532107 184.144892,84.7082923 194.51671,79.9914847 C207.122524,74.2587198 215.851874,72.7172943 219.716047,72.4088523 C227.965664,71.7503599 243.107103,71.4305579 248.783279,75.1476023 C286.195311,80.5855512 276.858113,75.514447 286.366548,85.0054585 C286.975447,85.6132415 290.303584,84.3086646 290.7655,85.0054585 C295.14083,91.6055895 313.118808,99.8858754 318.839128,105.617099 C324.883533,111.673024 339.912009,127.065063 346.547291,136.400699 C350.241746,141.598683 348.790738,142.916565 351.376627,145.507382 C351.376627,145.507382 361.569228,183.202137 361.569228,192.635056 C363.291666,196.959053 363.097232,219.909594 363.325972,235.601649 Z" id="Path-6" fill="#F6D6BA"></path>
                    <path d="M65.3260617,254.710792 C65.0746516,246.761987 62.6885149,230.368612 65.3260616,225.310844 C67.5911123,220.967376 45.347675,203.090478 111.748183,146.425897 C197.000008,131.031483 275.638008,130.743352 306.895012,146.425897 C338.152016,162.108442 347.499759,239.199774 347.632477,239.199774 C348.321657,239.199774 346.584037,238.237596 346.323034,237.599752 C343.808346,231.454306 333.058778,232.794898 327.600937,227.561912 C318.501024,218.836901 342.663123,218.613195 327.600944,218.613195 C309.987345,218.613195 287.534098,217.910149 249.524986,218.613195 C228.244469,207.148305 197.000008,206.480573 183.368125,218.613194 C144.452755,220.310418 121.956845,211.491811 93.4313029,218.613195" id="Path-7" opacity="0.30911847" fill="#E8CDB3" filter="url(#filter-2)"></path>
                    <path d="M358.189886,267.687406 C355.05373,265.597356 356.351448,257.296923 353.502717,255.316847 C348.978769,252.172374 345.122646,247.366745 341.600972,244.022704 C340.35548,242.840035 332.563069,242.900213 330.86836,242.060243 C326.828877,240.058101 320.764657,243.995676 316.160225,243.995676 C315.013299,243.995676 305.1647,242.311905 304.452351,243.368159 C302.142098,246.793745 261.301798,260.841686 257.548743,258.247613 C254.414732,256.081417 265.453058,234.605456 271.715548,234.605456 C276.382483,234.605456 291.043024,228.04371 296.287396,225.4322 C303.783092,221.69961 316.397024,229.426993 319.191221,225.4322 C321.847328,221.634831 327.967913,223.969265 331.71477,221.007848 C332.620974,220.291607 338.4151,219.152406 340.198034,221.007848 C342.699706,223.611257 349.670248,225.726027 351.487172,228.781311 C352.512571,232.850969 364.459204,271.865511 358.189886,267.687406 Z" id="Path-3" stroke="#979797" fill="#744247"></path>
                    <path d="M98.335033,316.88462 C96.0121682,314.492451 105.905165,319.727128 123.74802,314.793761 C142.945769,309.256957 146,307 146,307" id="Line-4" stroke="#979797" stroke-linecap="square"></path>
                    <path d="M80,287 C80,287 86.775157,274 115.648052,274 C147.771606,275.478941 158,287 158,287" id="Line-5" stroke="#979797" stroke-linecap="square"></path>
                    <path d="M84.0509641,294.520791 C85.2757129,292.218397 102.977924,281.673899 129.420643,279 C153.079013,280.245697 162.999998,291.031457 163,292.776124 C163.000002,294.520791 155.337111,305.583876 129.420642,309 C103.839663,305.583876 82.8262153,296.823184 84.0509641,294.520791 Z" id="r-eye-4" stroke="#979797" opacity="0.935984142" fill="#FEF9F9" transform="translate(123.000000, 294.000000) scale(-1, 1) translate(-123.000000, -294.000000) "></path>
                    <path d="M127.920974,280.871916 C124.342793,280.103187 120.524792,279.458997 116.495511,279 C108.817378,280.299493 103,286.488852 103,293.92817 C103,301.697233 109.344515,308.103073 117.527126,309 C120.97084,308.482172 124.319553,307.869471 127.528209,307.192606 C132.582124,304.598319 136,299.630438 136,293.92817 C136,288.374891 132.758395,283.518124 127.920974,280.871916 L127.920974,280.871916 Z" id="r-eye-5" stroke="#979797" opacity="0.90520056" fill="#6F8286"></path>
                    <circle id="Oval-4" opacity="0.45" fill="#000000" cx="120" cy="293" r="6"></circle>
                    <path d="M275.335033,317.88462 C273.012168,315.492451 282.905165,320.727128 300.74802,315.793761 C319.945769,310.256957 323,308 323,308" id="Line-3" stroke="#979797" stroke-linecap="square" transform="translate(299.000000, 312.000000) scale(-1, 1) translate(-299.000000, -312.000000) "></path>
                    <path d="M262,288 C262,288 268.775157,275 297.648052,275 C329.771606,276.478941 340,288 340,288" id="Line-2" stroke="#979797" stroke-linecap="square" transform="translate(302.000000, 281.500000) scale(-1, 1) translate(-302.000000, -281.500000) "></path>
                    <path d="M259.048766,295.520791 C260.273473,293.218397 278.979968,282.673899 305.421786,280 C329.079351,281.245697 338.999998,292.031457 339,293.776124 C339.000002,295.520791 331.337372,306.583876 305.421785,310 C279.841678,306.583876 257.824059,297.823184 259.048766,295.520791 Z" id="r-eye" stroke="#979797" opacity="0.935984142" fill="#FEF9F9"></path>
                    <path d="M284.204945,283.658084 C290.023701,282.06719 296.605442,280.738325 303.755564,280 C305.05934,280.070101 306.321192,280.169934 307.541763,280.296291 C311.468698,283.350704 314,288.153885 314,293.555778 C314,301.766962 308.151242,308.594781 300.442408,310 C296.450023,309.376256 292.568892,308.628448 288.877741,307.80479 C284.151895,304.86591 281,299.583591 281,293.555778 C281,289.851362 282.190396,286.428502 284.204945,283.658084 L284.204945,283.658084 Z" id="r-eye-2" stroke="#979797" opacity="0.90520056" fill="#6F8286"></path>
                    <circle id="Oval-10" opacity="0.450851213" fill="#000000" cx="298" cy="294" r="6"></circle>
                    <circle id="Oval-8" opacity="0.561683769" fill="white" filter="url(#filter-3)" cx="307" cy="294" r="6"></circle>
                    <circle id="Oval-9" opacity="0.558010728" fill="white" filter="url(#filter-4)" cx="129" cy="294" r="6"></circle>
                    <g id="Path-19-+-Line" transform="translate(121.000000, 450.000000)" stroke="#313131">
                        <path d="M50.0891237,0.0757052832 C25.9901066,4.22873957 13,9.60660454 13,9.60660454 C13,9.60660454 27.3869035,27.3926197 42.6288024,32.7455094 C57.8707012,38.098399 83.1852452,39.9835989 83.1852452,39.9835989 C83.1852452,39.9835989 113.491795,40.5750353 127.010611,34.6546874 C140.529427,28.7343396 161,11.4878083 161,11.4878083 C161,11.4878083 136.192011,5.21964205 114.625756,1.06660776 C102.965975,2.36534887 84.0058491,4.22873962 84.0058491,4.22873962 C84.0058491,4.22873962 59.8232807,-0.661543578 50.0891237,0.0757052832 Z" id="Path-19" opacity="0.595673974" fill="#C35480"></path>
                        <path d="M1,6 C1,6 62.9879646,16.9462391 86.5,17.9314543 C110.012035,18.9166694 172,8.95564551 172,8.95564551" id="Line" stroke-width="2" stroke-linecap="square" opacity="0.757054571"></path>
                    </g>
                    <path d="M43.1069894,303.0911 C43.1069895,244.069719 43.1069895,227.176374 49.028525,224.187133 C50.0291907,225.63517 49.1587262,234.350378 49.6134392,237.821472 C52.0354672,256.310253 49.4706188,293.75518 51.613439,323.909851 C47.68659,396.420758 93.6251686,418.959737 89.281332,418.959732 C31.2004327,414.455795 39.8840104,344.294675 43.1069894,303.0911 Z" id="Path-45" fill="#EACDB4"></path>
                    <path d="M195.999998,398.854675 C203.020466,388.170441 181.734491,386.785109 175.586399,384.584662 C169.438306,382.384215 160.030975,365.283432 169.272595,354.64813 C178.514214,344.012828 183.280435,337.846041 190.566595,324.731086 C190.566595,314.484019 193.214492,281.937094 182.67954,301.429586 C174.230695,345.44143 143.717621,352.937897 146.970017,384.584663 C150.222412,416.23143 197.000001,401.269904 195.999998,398.854675 Z" id="Path-46" fill="#E9CDB4" filter="url(#filter-5)"></path>
                    <g transform="translate(154.000000, 296.000000)" stroke="#313131">
                        <path d="M23.1834105,98.4976519 C28.4271447,99.3276728 32.8197732,99.1061584 32.9946207,98.0028857 C33.1694683,96.899613 29.0603238,95.3323689 23.8165895,94.5023481 C18.5728553,93.6723272 14.1802268,93.8938416 14.0053793,94.9971143 C13.8305317,96.100387 17.9396762,97.6676311 23.1834105,98.4976519 L23.1834105,98.4976519 Z" id="Oval-5" fill="#303030"></path>
                        <path d="M91.7809563,97.5790397 C97.0253212,96.8125224 101.150931,95.2603195 100.995763,94.1120976 C100.840595,92.9638757 96.4634086,92.654443 91.2190437,93.4209603 C85.9746788,94.1874776 81.8490695,95.7396805 82.0042374,96.8879024 C82.1594052,98.0361243 86.5365914,98.345557 91.7809563,97.5790397 L91.7809563,97.5790397 Z" id="Oval-6" fill="#303030"></path>
                        <path d="M33,97 C33,97 38.3543914,107 58.8479326,107 C79.3414738,107 82,97 82,97" id="Path-25"></path>
                        <path d="M80.4172878,2 C81.6384255,10.1489178 78.2350334,19.7857661 81.3666702,27.5395148 C85.6595433,38.1684165 112.628081,74.916821 113.201407,77.7463311 C117.339063,98.1667011 105.032841,109.737492 84.7534091,106.444326" id="Path"></path>
                        <path d="M0.417287827,0 C1.63842551,8.14891779 -1.7649666,17.7857661 1.36667016,25.5395148 C5.65954331,36.1684165 32.6280809,72.916821 33.2014074,75.7463311 C37.3390632,96.1667011 25.0328412,107.737492 4.75340908,104.444326" id="Path-5" transform="translate(17.000000, 52.500000) scale(-1, 1) translate(-17.000000, -52.500000) "></path>
                    </g>
                    <path d="M157.117117,241.654657 C153.445611,240.350669 154.677943,235.243604 150.917,233.721901 C133.325933,226.604439 111.385006,230.015414 100.535277,241.220532 C97.0108095,244.860445 87.7086526,240.954779 83.201977,242.438589 C81.3796007,243.038601 71.5054456,249.76996 71.0188862,250.686969 C70.1596579,252.306341 67.1890321,249.600281 65.4748176,250.293864 C64.0233435,250.88114 60.3478556,265.301524 62.8506251,267.770538 C64.2640031,269.164854 64.9243976,263.766724 65.1398635,263.34041 C65.9401805,261.756928 76.8497699,257.422226 78.4687284,256.829671 C81.0440395,255.88708 84.1222824,258.060944 86.6520047,257.135039 C88.4655401,256.471266 91.5495017,254.195928 92.7897507,253.022814 C95.3784347,250.574255 108.6977,254.87215 114.507484,252.006436 C115.751265,251.392934 157.351409,259.265765 159.926112,260.562464 C160.440339,260.821445 164.333463,263.594139 164.971214,262.694349 C174.752058,248.894766 158.037825,248.854964 154.316207,237.147047" id="Path-8" stroke="#979797" fill="#744247"></path>
                    <path d="M159.8551,483.04638 C142.466109,475.752286 143.760777,462.424109 133.790728,482.401547 C132.226084,485.536696 132.440156,492.679246 133.790728,496.063265 C135.391391,500.073913 141.020408,492.758882 143.105834,494.796551 C144.948171,496.596696 144.157534,502.395816 147.232766,503.536771 C151.213177,505.013561 154.15365,494.916886 156.180645,492.886096 C158.331795,490.730917 164.933039,490.066427 165.809423,487.929625 C166.38136,486.535127 164.629965,486.093301 164.081489,485.726263 L159.8551,483.04638 Z" id="Path-9" fill="#E9CDB4" filter="url(#filter-6)"></path>
                </g>
            </g>
        </g>
    </g>
</svg>
