<?xml version="1.0" encoding="UTF-8" standalone="no"?>
<svg xmlns:sketch="http://www.bohemiancoding.com/sketch/ns" xmlns="http://www.w3.org/2000/svg" height="691px" width="468px" version="1.1" xmlns:xlink="http://www.w3.org/1999/xlink" viewBox="0 0 468 691"><!-- Generator: Sketch 3.2.2 (9983) - http://www.bohemiancoding.com/sketch -->
 <title>Artboard 3</title>
 <desc>Created with Sketch.</desc>
 <defs>
  <linearGradient id="linearGradient-1" y1="100%" x2="50%" x1="50%" y2="-3.3873%">
   <stop stop-color="#A33321" offset="0"/>
   <stop stop-color="#894E49" offset=".43406"/>
   <stop stop-color="#894E49" offset="1"/>
  </linearGradient>
  <filter id="filter-2" height="200%" width="200%" y="-50%" x="-50%" filterUnits="objectBoundingBox">
   <feGaussianBlur result="blur" stdDeviation="6" color-interpolation-filters="sRGB" in="SourceGraphic"/>
  </filter>
  <filter id="filter-3" height="200%" width="200%" y="-50%" x="-50%" filterUnits="objectBoundingBox">
   <feMorphology operator="dilate" radius="3" result="shadowSpreadInner1" in="SourceAlpha"/>
   <feOffset in="shadowSpreadInner1" result="shadowOffsetInner1" dx="1" dy="0"/>
   <feGaussianBlur result="shadowBlurInner1" stdDeviation="1.5" color-interpolation-filters="sRGB" in="shadowOffsetInner1"/>
   <feComposite in2="SourceAlpha" k3="1" k2="-1" result="shadowInnerInner1" in="shadowBlurInner1" operator="arithmetic"/>
   <feColorMatrix type="matrix" values="0 0 0 0 1   0 0 0 0 1   0 0 0 0 1  0 0 0 0.7 0" result="shadowMatrixInner1" in="shadowInnerInner1"/>
   <feMerge>
    <feMergeNode in="SourceGraphic"/>
    <feMergeNode in="shadowMatrixInner1"/>
   </feMerge>
  </filter>
  <filter id="filter-4" height="200%" width="200%" y="-50%" x="-50%" filterUnits="objectBoundingBox">
   <feMorphology operator="dilate" radius="3" result="shadowSpreadInner1" in="SourceAlpha"/>
   <feOffset in="shadowSpreadInner1" result="shadowOffsetInner1" dx="1" dy="0"/>
   <feGaussianBlur result="shadowBlurInner1" stdDeviation="1.5" color-interpolation-filters="sRGB" in="shadowOffsetInner1"/>
   <feComposite in2="SourceAlpha" k3="1" k2="-1" result="shadowInnerInner1" in="shadowBlurInner1" operator="arithmetic"/>
   <feColorMatrix type="matrix" values="0 0 0 0 1   0 0 0 0 1   0 0 0 0 1  0 0 0 0.7 0" result="shadowMatrixInner1" in="shadowInnerInner1"/>
   <feMerge>
    <feMergeNode in="SourceGraphic"/>
    <feMergeNode in="shadowMatrixInner1"/>
   </feMerge>
  </filter>
  <filter id="filter-5" height="200%" width="200%" y="-50%" x="-50%" filterUnits="objectBoundingBox">
   <feGaussianBlur result="blur" stdDeviation="1" color-interpolation-filters="sRGB" in="SourceGraphic"/>
  </filter>
  <filter id="filter-6" height="200%" width="200%" y="-50%" x="-50%" filterUnits="objectBoundingBox">
   <feGaussianBlur result="blur" stdDeviation="2" color-interpolation-filters="sRGB" in="SourceGraphic"/>
  </filter>
 </defs>
 <g id="Page-1" fill-rule="evenodd" sketch:type="MSPage" fill="none">
  <g id="Artboard-3" sketch:type="MSArtboardGroup">
   <g id="Group" transform="translate(37 32)" sketch:type="MSLayerGroup">
    <g sketch:type="MSShapeGroup">
     <path id="Path-10" stroke="#979797" fill="#F6D6BA" d="m392.59 296.83c-11.18 7.52-1.3 19.05-10.23 28.12-1.11 1.13 1.02 11.28 0 13.34-1.98 4-3.56 6.76-4.89 15.69-0.57 3.78 0.52 10.02 0 14.58-0.93 8.1-3.47 14.44-4.63 17.44 0 0-4.14-66.19 0-89.17 4.15-22.98 17.06-5.41 17.06-5.41 0.66 0.08 4.31 4.32 2.69 5.41zm-379.28-3.38c-6.068-3.82-10.402 0.49-13.309 6.31-0.020679 0.04 2.8968 4.95 4.4595 9.51 1.5559 4.55 1.7547 8.74 2.7935 11.33 1.7464 4.36 3.423 18.5 4.438 30.31 0.809 9.42 1.143 17.41 1.153 17.43 2.589 6.02 9.063 12.19 9.063 18.89 0 6.66 2.906 18.34 10.227 16.6l10.866-22.84-17.721-88.75-11.97 1.21z"/>
     <path id="Path-2" stroke="#5A474A" fill="url(#linearGradient-1)" d="m267.3 7.2143c-6.75-4.6905-21.01-2.0563-27.46-5.2784-6.16-3.0774-23.22 4.6211-27.84 0-0.64-0.638-29.99-2.6998-30.74-1.6366-7.26 10.392-75.53 23.235-81.03 39.048-0.335 0.959-7.432 1.991-8.218 3.563-6.351 12.697-14.863 12.053-21.298 24.917-10.863 21.717-9.756 16.332-20.519 26.051-1.512 1.366-9.093 5.276-11.235 7.422-1.479 1.47 0.559 6.33-0.964 7.79-5.59 5.33-10.814 16.83-18.781 22.12-4.377 2.9-3.547 17.92-7.295 21.66-5.7509 5.75-12.531 73.28-8.8976 80.51 4.9696 9.9 3.9661 20.04 7.9796 27.71 3.215 6.14-0.588 12.83 3.602 17.01 2.143 2.15-2.434 13.35 0 14.97 5.074 3.36 9.207 14.62 12.492 21.19 0.694 1.39-5.058-1.32-2.864 10.74 2.194 12.07 1.093 19.21 2.194 19.98 3.295 2.29 1.887 7.1 4.611 9.72 1.884 1.8-2.91 24.15-2.055 26.86 5.585 17.7-1.845 30.96 2.8 30.96 2.56 11.95 2.291 13.02 6.214 20.88 1.843 3.7 0 8.76 3.425 19.14 2.681 15.26 8.774 19.21 8.774 35.15 0 1.1-1.065 13.63 0 14.34 14.153 9.43 23.883 36.55 34.624 52.66 1.459 2.18 8.007 3.63 9.763 6.15 2.32 3.34 7.668 10.02 11.068 13.41 0.64 0.64 1.02-1.93 1.93-1.93 1.49 0 5.52 3.94 6.53 4.91 3.98 3.79 3.22 10.79 7.88 14.03 0.91 0.63 6.46-5.32 9.47-2.31 5.04 5.04 8.65 8.57 13.42 13.32 2.24 2.25 10.76 0.33 13.33 3.02 18.49 19.35 24.21 5.67 40.95 17.3 6.65 4.63 18.06-7.3 24.11-1.25 0.94 0.94 0.01 3.94 0.96 4.86 3.36 3.22 5.17-4.32 7.29-4.32 2.25 0 7 6.38 11.07 3.56 2.14-1.49 1.89-5.5 3.64-7.25 1.61-1.6 8.04 1.61 9.65 0 5.74-5.77 3.24-0.04 11.14-7.58 5.63-5.37 4.01 2.8 9.27-0.3 2.45-1.44 2.85-7.41 4.32-9.51 2.38-3.39 13.28-1.33 16.18-4.36 2.65-2.75 4.68-5.48 7.97-8.63 0.7-0.67 0.33-5.44 0.96-5.86 2.43-1.62 10.14-1.36 11.15-4.28 0.97-2.79 0.49-8.84 2.94-11.19 3.23-3.09 8.55-7.28 10.81-11.79 3.76-7.53 8.09-7.96 12.46-18.94s9.8-13.91 12.48-21.58c2.22-6.37 4.77-26.48 4.77-26.48s2.71-24.45 8.77-41.82c0.45-1.76 5-50.65 5-53.08-2.72-16.66 0-21.03 0-39.33 0-17.03 1.52-28.41 4.26-31.04 0.52-0.49 3.27-2.65 2.64-3.89-0.07-0.14-4.4-6.45-1.97-8.88 5.07-5.07 7.59-15.01 13.71-21.12 0.05-0.06-2.76-6.98-2.24-22.26 0.58-16.95 4.5-42.62 4.5-46.65 0-5.48-3.03-36.61-1.97-37.63 2.21-2.12 0-8.94 0-29.12-4.9-13.99-16.58-25.24-21.64-32.46-1.25-1.79-11.08-16.33-19.53-19.11-7.35-2.426-19.61-10.312-21.24-12.651-4.41-6.345-2.77-26.039-3.02-26.296-3.78-3.773-10.43-17.065-11.82-22.453l6.06 12.069c-8.95-26.168-37.35-32.807-54.54-44.755z"/>
     <path id="Path-4" fill="#F6D6BA" d="m207.91 442.79c-0.45 0.68-6.44 1.78-14.73 2.15-1 0.05-2.14-1.58-3.18-1.54-1.56 0.05-6.78 1.54-8.38 1.63-1.78 0.09-3.72-1.7-5.37-1.63-10.22 0.39-17.41 2.1-18.25 1.61-1.38-0.81-2.9-4.01-6.12-2.7-1.67 0.68-3.49 3.11-5.45 4.09-6.36 3.16-18.19-1.76-22.71 4.71-0.17 0.23-3.38-0.56-3.85 1.26-1.38 5.37-0.72 17.32-0.65 17.38 2.48 2.37 4.58-1.42 5.79-1.42 0.56 0-5.14 12.97-5.14 11.65 0-2.41 7.99-1.75 9.22 0 1 1.43-7.45 8.82-5.5 10.68 1.04 0.99 6.51-0.59 6.66-0.37 0.57 0.82 0.33 9.05 1.88 9.82 3.25 1.61 7.42-5.52 9.18-3.69 3.61 3.75 2.61 11.25 5.62 12.74 5.56 2.76 8.9-13.93 14.22-15.64 9.67-3.11 9.82 0.9 13.61 4.66 1.96 1.96 4.53-5.19 4.82-5.34 1.53-0.75 8.13-0.75 10.42-0.75 1.42 0 18.67-0.4 19.31 0.56 0.26 0.39 3.8 2.53 4.59 1.75 0.84-0.83 12.09-3.36 14.25-0.28 2.35 3.36 3.92-1.12 6.14 0.42 1.83 1.26 2.6 0.79 4.09 2.21 0.95 0.9 4.93-5.05 8.8-1.07s1.78 11.45 5.31 11.45c3.52 0 1.79-10.27 6.32-6.52s8.57 8.6 8.66 8.55c1.67-0.82 2.05 5.67 6.38 3.33 4.34-2.34 2.87-8.4 3.91-9.12 2.42-1.67 11.44 5.2 13.14 2.77 1.04-1.48-0.82-4.89 0-6.52 0.21-0.42 1.92-2.24 3.57-3.94 1.56-1.62 4.3 0.7 1.34-5.18-0.4-0.78-4.4-4.57-3.82-4.97 0.77-0.52 8.12 2.6 8.84 0.45 0.47-1.38-2.42-5.38-2.01-5.66 4.73-3.28 5.24 7.12 2.57-3.15-0.7-2.71-6.05-3.35-6.44-4.09-1.59-3.03 2.47-5.79 3.78-8 1.39-2.32-2.13-0.62-2.13-3.32 0-1.17 0.47-3.97 1.5-4.65 1.58-1.05-1.63-3.46-2.59-3.46-2.65 0-3.26-3.11-7.64-3.11-1.06 0-4.18 2.59-4.72 1.83-1.02-1.47-0.31-3.77-1.76-5.27-3.81-3.97-14.6 1.23-18.05 1.23-2.86 0-7.6-6.78-7.6-3.94 0 5.99-6.26-3.2-8.56 0.07-5.52 7.84-2.79-1.83-6.26 0.57-0.56 0.38-0.47 3.19-1.75 2.55-2.41-1.19-4.86-3.57-7.31-4.79-0.68-0.33-3.61 2.86-5.07 3.49-4.26 1.82-6.15-3.1-9.38-3.49"/>
     <path id="Path-6" fill="#F6D6BA" d="m363.33 235.6c0.16 10.97 0.52 20.26 1.89 21.63-0.06 28.6 2.78 73.09 2.78 85.46 0 12.47-1.11 38.97-2.84 50.3-1.88 12.29-2 28.28-16.85 38.87-0.91 0.64-3.43 12.45-8.47 13.12-3.62 0.49-7.71-9.7-9.22-10.46-0.93-0.46-2.36-7.54-9.25-13.25-6.15-5.09-15.18-8.39-15.73-9.21-0.67-1.02-13.44-4.78-14.87-4.78h-55.58c-20.49 0-18.21 6.73-22.77 13.99-1.9-1.94 0.85-15.99-32.25-15.99-12.51 0-58.83-5.98-66.78 0-7.96 5.98-24.868 18.29-34.845 13.29-4.892-2.45-4.808-2.17-9.575-4.56-1.389-0.7-13.158-11.46-14.282-12.54-20.301-19.5-13.144-91.31-9.059-122.44 0.721-5.49-1.455-47.56 0-49.02 3.964-3.97 6.068-11.82 6.565-19.24 1.636-19.92 7.148-35.39 16.776-49.26 1.778-2.56 6.724-14.62 8.6-16.59 4.691-4.92 11.047-15.85 13.575-20.92 3.525-7.06 12.025-12.59 22.245-18.38 11.28-6.395 16.06-0.26 19.96-4.18 5.64-5.644 31.59-2.263 38.39-9.369 8.54-8.918 12.4-7.363 22.78-12.08 12.6-5.732 21.33-7.274 25.2-7.582 8.25-0.659 23.39-0.978 29.06 2.739 37.42 5.438 28.08 0.366 37.59 9.857 0.61 0.608 3.93-0.696 4.4 0 4.37 6.601 22.35 14.881 28.07 20.615 6.04 6.05 21.07 21.45 27.71 30.78 3.69 5.2 2.24 6.52 4.83 9.11 0 0 10.19 37.69 10.19 47.13 1.72 4.32 1.53 27.27 1.76 42.96z"/>
     <path id="Path-7" opacity=".30912" filter="url(#filter-2)" fill="#E8CDB3" d="m65.326 254.71c-0.251-7.95-2.637-24.34 0-29.4 2.265-4.34-19.978-22.22 46.424-78.88 85.25-15.4 163.89-15.69 195.15 0 31.25 15.68 40.6 92.77 40.73 92.77 0.69 0-1.05-0.96-1.31-1.6-2.51-6.15-13.26-4.81-18.72-10.04-9.1-8.72 15.06-8.95 0-8.95-17.61 0-40.07-0.7-78.08 0-21.28-11.46-52.52-12.13-66.15 0-38.92 1.7-61.41-7.12-89.939 0"/>
     <path id="Path-3" stroke="#979797" fill="#744247" d="m358.19 267.69c-3.14-2.09-1.84-10.39-4.69-12.37-4.52-3.15-8.38-7.95-11.9-11.3-1.24-1.18-9.04-1.12-10.73-1.96-4.04-2-10.11 1.94-14.71 1.94-1.15 0-11-1.69-11.71-0.63-2.31 3.42-43.15 17.47-46.9 14.88-3.14-2.17 7.9-23.64 14.17-23.64 4.66 0 19.32-6.57 24.57-9.18 7.49-3.73 20.11 4 22.9 0 2.66-3.8 8.78-1.46 12.52-4.42 0.91-0.72 6.71-1.86 8.49 0 2.5 2.6 9.47 4.72 11.29 7.77 1.02 4.07 12.97 43.09 6.7 38.91z"/>
     <path id="Line-4" stroke="#979797" stroke-linecap="square" d="m98.335 316.88c-2.323-2.39 7.575 2.85 25.415-2.09 19.2-5.53 22.25-7.79 22.25-7.79"/>
     <path id="Line-5" stroke="#979797" stroke-linecap="square" d="m80 287s6.775-13 35.65-13c32.12 1.48 42.35 13 42.35 13"/>
     <path id="r-eye-4" opacity=".93598" d="m84.051 294.52c1.225-2.3 18.929-12.85 45.369-15.52 23.66 1.25 33.58 12.03 33.58 13.78 0 1.74-7.66 12.8-33.58 16.22-25.58-3.42-46.594-12.18-45.369-14.48z" transform="translate(123 294) scale(-1 1) translate(-123 -294)" stroke="#979797" fill="#FEF9F9"/>
     <path id="r-eye-5" opacity=".90520" stroke="#979797" fill="#6F8286" d="m127.92 280.87c-3.58-0.77-7.4-1.41-11.42-1.87-7.68 1.3-13.5 7.49-13.5 14.93 0 7.77 6.34 14.17 14.53 15.07 3.44-0.52 6.79-1.13 10-1.81 5.05-2.59 8.47-7.56 8.47-13.26 0-5.56-3.24-10.41-8.08-13.06z"/>
     <circle id="Oval-4" opacity=".45" cy="293" cx="120" r="6" fill="#000"/>
     <path id="Line-3" stroke="#979797" stroke-linecap="square" d="m275.34 317.88c-2.33-2.39 7.57 2.85 25.41-2.09 19.2-5.53 22.25-7.79 22.25-7.79" transform="translate(299 312) scale(-1 1) translate(-299 -312)"/>
     <path id="Line-2" stroke="#979797" stroke-linecap="square" d="m262 288s6.78-13 35.65-13c32.12 1.48 42.35 13 42.35 13" transform="translate(302 281.5) scale(-1 1) translate(-302 -281.5)"/>
     <path id="r-eye" opacity=".93598" stroke="#979797" fill="#FEF9F9" d="m259.05 295.52c1.22-2.3 19.93-12.85 46.37-15.52 23.66 1.25 33.58 12.03 33.58 13.78 0 1.74-7.66 12.8-33.58 16.22-25.58-3.42-47.6-12.18-46.37-14.48z"/>
     <path id="r-eye-2" opacity=".90520" stroke="#979797" fill="#6F8286" d="m284.2 283.66c5.82-1.59 12.41-2.92 19.56-3.66 1.3 0.07 2.56 0.17 3.78 0.3 3.93 3.05 6.46 7.85 6.46 13.26 0 8.21-5.85 15.03-13.56 16.44-3.99-0.62-7.87-1.37-11.56-2.2-4.73-2.93-7.88-8.22-7.88-14.24 0-3.71 1.19-7.13 3.2-9.9z"/>
     <circle id="Oval-10" opacity=".45085" cy="294" cx="298" r="6" fill="#000"/>
     <circle id="Oval-8" opacity=".56168" filter="url(#filter-3)" cy="294" cx="307" r="6" fill="#fff"/>
     <circle id="Oval-9" opacity=".55801" filter="url(#filter-4)" cy="294" cx="129" r="6" fill="#fff"/>
     <g id="Path-19-+-Line" stroke="#313131" transform="translate(121 450)">
      <path id="Path-19" opacity=".59567" fill="#C35480" d="m50.089 0.075705c-24.099 4.153-37.089 9.5309-37.089 9.5309s14.387 17.786 29.629 23.139c15.242 5.352 40.556 7.238 40.556 7.238s30.305 0.591 43.825-5.329c13.52-5.921 33.99-23.167 33.99-23.167s-24.81-6.2684-46.37-10.421c-11.66 1.2983-30.624 3.1617-30.624 3.1617s-24.183-4.8902-33.917-4.153z"/>
      <path id="Line" opacity=".75705" stroke-width="2" stroke-linecap="square" d="m1 6s61.988 10.946 85.5 11.931c23.51 0.986 85.5-8.9754 85.5-8.9754"/>
     </g>
     <path id="Path-45" fill="#EACDB4" d="m43.107 303.09c0-59.02 0-75.91 5.922-78.9 1 1.45 0.13 10.16 0.584 13.63 2.422 18.49-0.142 55.94 2 86.09-3.926 72.51 42.012 95.05 37.668 95.05-58.081-4.5-49.397-74.67-46.174-115.87z"/>
     <path id="Path-46" filter="url(#filter-5)" fill="#E9CDB4" d="m196 398.85c7.02-10.68-14.27-12.06-20.41-14.27-6.15-2.2-15.56-19.3-6.32-29.93 9.24-10.64 14.01-16.8 21.3-29.92 0-10.25 2.64-42.79-7.89-23.3-8.45 44.01-38.96 51.51-35.71 83.15 3.25 31.65 50.03 16.69 49.03 14.27z"/>
     <g stroke="#313131" transform="translate(154 296)">
      <path id="Oval-5" fill="#303030" d="m23.183 98.498c5.244 0.83 9.637 0.608 9.812-0.495 0.174-1.103-3.935-2.671-9.178-3.501-5.244-0.83-9.637-0.608-9.812 0.495-0.174 1.103 3.935 2.671 9.178 3.501z"/>
      <path id="Oval-6" fill="#303030" d="m91.781 97.579c5.244-0.766 9.369-2.319 9.219-3.467-0.16-1.148-4.537-1.458-9.781-0.691-5.244 0.766-9.37 2.319-9.215 3.467s4.533 1.458 9.777 0.691z"/>
      <path id="Path-25" d="m33 97s5.354 10 25.848 10c20.493 0 23.152-10 23.152-10"/>
      <path id="Path" d="m80.417 2c1.221 8.149-2.182 17.786 0.95 25.54 4.293 10.628 31.263 47.377 31.833 50.206 4.14 20.421-8.17 31.994-28.447 28.694"/>
      <path id="Path-5" transform="translate(17 52.5) scale(-1 1) translate(-17 -52.5)" d="m0.41729 0c1.2211 8.1489-2.1823 17.786 0.94941 25.54 4.2928 10.628 31.261 47.377 31.834 50.206 4.138 20.421-8.168 31.994-28.448 28.694"/>
     </g>
     <path id="Path-8" stroke="#979797" fill="#744247" d="m157.12 241.65c-3.67-1.3-2.44-6.41-6.2-7.93-17.59-7.12-39.53-3.7-50.38 7.5-3.529 3.64-12.831-0.27-17.338 1.22-1.822 0.6-11.697 7.33-12.183 8.25-0.859 1.62-3.83-1.09-5.544-0.4-1.452 0.59-5.127 15.01-2.624 17.48 1.413 1.39 2.073-4 2.289-4.43 0.8-1.58 11.71-5.92 13.329-6.51 2.575-0.94 5.653 1.23 8.183 0.31 1.814-0.67 4.898-2.94 6.138-4.12 2.588-2.45 15.91 1.85 21.72-1.01 1.24-0.62 42.84 7.26 45.42 8.55 0.51 0.26 4.4 3.03 5.04 2.13 9.78-13.8-6.93-13.84-10.65-25.54"/>
     <path id="Path-9" filter="url(#filter-6)" fill="#E9CDB4" d="m159.86 483.05c-17.39-7.3-16.1-20.63-26.07-0.65-1.56 3.14-1.35 10.28 0 13.66 1.6 4.01 7.23-3.3 9.32-1.26 1.84 1.8 1.05 7.6 4.12 8.74 3.98 1.47 6.92-8.62 8.95-10.65 2.15-2.16 8.75-2.82 9.63-4.96 0.57-1.39-1.18-1.84-1.73-2.2l-4.22-2.68z"/>
    </g>
   </g>
  </g>
 </g>
</svg>
