<?xml version="1.0" encoding="UTF-8" standalone="no"?>
<svg width="400px" height="270px" viewBox="0 0 400 270" version="1.1" xmlns="http://www.w3.org/2000/svg" xmlns:xlink="http://www.w3.org/1999/xlink" xmlns:sketch="http://www.bohemiancoding.com/sketch/ns">
    <!-- Generator: Sketch 3.0.3 (7891) - http://www.bohemiancoding.com/sketch -->
    <title>Artboard 7</title>
    <desc>Created with Sketch.</desc>
    <defs>
        <filter x="-50%" y="-50%" width="200%" height="200%" filterUnits="objectBoundingBox" id="filter-1">
            <feOffset dx="0" dy="3" in="SourceAlpha" result="shadowOffsetOuter1"></feOffset>
            <feGaussianBlur stdDeviation="2.5" in="shadowOffsetOuter1" result="shadowBlurOuter1"></feGaussianBlur>
            <feColorMatrix values="0 0 0 0 0   0 0 0 0 0   0 0 0 0 0  0 0 0 0.35 0" in="shadowBlurOuter1" type="matrix" result="shadowMatrixOuter1"></feColorMatrix>
            <feMerge>
                <feMergeNode in="shadowMatrixOuter1"></feMergeNode>
                <feMergeNode in="SourceGraphic"></feMergeNode>
            </feMerge>
        </filter>
    </defs>
    <g id="Page-1" stroke="none" stroke-width="1" fill="none" fill-rule="evenodd" sketch:type="MSPage">
        <g id="Artboard-7" sketch:type="MSArtboardGroup">
            <g id="Group" sketch:type="MSLayerGroup" transform="translate(1.000000, 1.000000)">
                <rect id="Rectangle-6" stroke="#979797" stroke-width="10" fill="#000000" filter="url(#filter-1)" sketch:type="MSShapeGroup" x="0" y="0" width="398" height="265"></rect>
                <path d="M107.989483,110.487765 C107.989483,110.487765 83.467805,95.8609923 87.5546108,114.828798 C89.0691209,121.857987 97.8094511,119.658119 101.768637,121.857988 C110.772722,126.860988 100.5,133.5 100.5,133.5" id="Line-2" stroke="#979797" stroke-width="2" stroke-linecap="square" sketch:type="MSShapeGroup"></path>
                <path d="M110.005831,128 C102.270624,128 96.8612494,134.200996 97.9251402,141.86101 L104.07486,186.13899 C105.138085,193.794215 112.273683,200 119.994141,200 L146.005859,200 C153.73461,200 160.861249,193.799004 161.92514,186.13899 L168.07486,141.86101 C169.138085,134.205785 163.722724,128 155.994169,128 L110.005831,128 Z" id="Rectangle-17" stroke="#979797" fill="#D8D8D8" sketch:type="MSShapeGroup"></path>
                <path d="M205.169647,215.598445 C79.6080017,215.598445 10,222 10,222 L10,256 L388,256 L388,222 C388,222 330.731293,215.598445 205.169647,215.598445 Z" id="Rectangle-10" fill="#D8D8D8" sketch:type="MSShapeGroup"></path>
                <path d="M109,178.783059 L109,218.96385 C109,228.642566 112,248 112,248 L133,248 C133,248 132,232.080007 132,224.120011 C132,215.196049 133.514471,218.477486 133.522951,211.76125 L133.522951,211.76125 C134.039194,215.591312 134.751878,217.44113 134.751878,224.660126 C134.751878,233.008519 133,248 133,248 L154,248 C154,248 157,228.732466 157,219.098699 L157,179.351494 C157.95207,174.034962 158.172201,168.130761 157.879195,162.474921 L205.054494,162.204856 L207.916629,150.480448 L148.945506,135.795144 L148.967771,136.31807 C140.438455,131.955509 121.617804,131.399878 115.00562,137.659524 C111.687863,139.613772 102.645656,144.481667 97.0394171,143.091095 C87.2634108,140.666255 68.0506142,135.424039 68.0506142,135.424039 L65.7212428,144.117371 C65.7212428,144.117371 80.2795623,157.614428 90.6559798,161.42771 C94.3131235,162.771692 102.115301,162.950482 108.093403,162.859268 C107.839969,168.205335 108.089385,173.734955 109,178.783059 Z" id="Rectangle-18" stroke="#979797" fill="#FFFFFF" sketch:type="MSShapeGroup"></path>
                <path d="M111.5,190.5 C111.5,190.5 118.166794,194.5 133.017872,194.5 C147.86895,194.5 154.5,191.5 154.5,191.5" id="Line-3" stroke="#979797" stroke-width="5" stroke-linecap="square" sketch:type="MSShapeGroup"></path>
                <ellipse id="Oval-9" stroke="#979797" fill="#FFFFFF" sketch:type="MSShapeGroup" cx="122.5" cy="247.5" rx="10.5" ry="6.5"></ellipse>
                <path d="M122.5,254 C128.29899,254 133,251.089851 133,247.5 C122.5,249.899617 122.5,249.711965 112,247.5 C112,251.089851 116.70101,254 122.5,254 Z" id="Oval-10" fill="#000000" sketch:type="MSShapeGroup"></path>
                <ellipse id="Oval-12" stroke="#979797" fill="#FFFFFF" sketch:type="MSShapeGroup" cx="143.5" cy="247.5" rx="10.5" ry="6.5"></ellipse>
                <path d="M143.5,254 C149.29899,254 154,251.089851 154,247.5 C143.5,249.899617 143.5,249.711965 133,247.5 C133,251.089851 137.70101,254 143.5,254 Z" id="Oval-11" fill="#000000" sketch:type="MSShapeGroup"></path>
                <path d="M65.5,135 C67.4329966,135 70,131.865993 70,128 C70,124.134007 67.4329966,122 65.5,122 C63.5670034,122 61,124.134007 61,128 C61,131.865993 63.5670034,135 65.5,135 Z" id="Oval-6" stroke="#000000" stroke-width="2" fill="#FFFFFF" sketch:type="MSShapeGroup"></path>
                <path d="M59,147 C65.0751322,147 70,142.970563 70,138 C70,133.029437 65.0751322,129 59,129 C52.9248678,129 50,133.029437 50,138 C50,142.970563 52.9248678,147 59,147 Z" id="Oval-5" stroke="#000000" stroke-width="2" fill="#FFFFFF" sketch:type="MSShapeGroup"></path>
                <circle id="Oval-4" stroke="#979797" fill="#FFFFFF" sketch:type="MSShapeGroup" cx="133" cy="113" r="25"></circle>
                <rect id="Rectangle-9" stroke="#979797" fill="#FFFFFF" sketch:type="MSShapeGroup" x="215" y="29" width="147" height="104"></rect>
                <g id="Oval-34-+-Line-+-Group-+-Oval-36-+-Oval-30-+-Oval-32-+-Line-+-Oval-33-+-Oval-29-+-Line" transform="translate(245.000000, 32.000000)" sketch:type="MSShapeGroup">
                    <g id="Oval-34-+-Line-+-Group-+-Oval-36-+-Oval-30-+-Oval-32-+-Line-+-Oval-33-+-Oval-29">
                        <g id="Oval-34-+-Line-+-Group">
                            <g id="Oval-34-+-Line" transform="translate(9.000000, 0.000000)">
                                <path d="M80.0307791,88.6089138 C82.5157006,86.3715586 75.926336,83.4401677 71.703515,83.4401677 C77.7108905,81.0214904 83.569918,80.7427888 85.8600419,79.8440862 C88.1501658,78.9453835 85.1285541,76.6089138 80.0307791,76.6089138 C73.4033622,76.6089138 68.0307791,79.2952053 68.0307791,82.6089138 C68.0307791,85.9226223 73.4033622,88.6089138 80.0307791,88.6089138 Z" id="Oval-34" fill="#979797" transform="translate(77.530779, 82.608914) rotate(9.000000) translate(-77.530779, -82.608914) "></path>
                                <path d="M49.3807096,49.8860592 C49.3807096,51.5 76.5,62.5 76.5,62.5 C76.5,62.5 83.2010987,62.2615328 85.8931153,65.5540686 C88.5851319,68.8466044 85.8931169,72.3832416 85.8931169,72.3832416 C85.8931169,72.3832416 90.3636784,77.9935891 87.6786264,80.0811015 C85.2636462,81.9586445 83.4553,72.3832393 68.663285,79.3764034 C63.2593963,85.2443538 85.0152137,86.9354854 78.8828729,90.943143 C71.6571763,94.0603343 62.0958749,86.9354871 62.0958749,86.9354871 L40.6548636,87.8334907 C40.6548636,87.8334907 8.83199757,81.7247017 8.83199757,58.9185749 C9.2015352,57.7951219 11.6722576,49.8890952 11.3704459,48.8860584 C10.8875828,47.2813177 11.8788802,51.9443795 7.60689515,46.0186191 C2.37069958,38.7553821 0.169182478,29.0748972 0.169182478,29.0748972 C0.169182478,29.0748972 11.1973969,32.9725334 16.5298583,41.0096182 C20.589853,37.06512 24.500422,36.489488 27.6488137,37.1247939 C29.1425077,37.4262025 47.3545348,0.305045683 47.3545348,0.305045683 L35.1767127,38.7099491 C35.1767127,38.7099491 49.3807096,42.4587689 49.3807096,49.8860592 Z" id="Line" stroke="#000000" stroke-linecap="square"></path>
                            </g>
                            <g id="Group" transform="translate(0.000000, 30.000000)" stroke="#000000">
                                <path d="M36.5,7.5 C36.5,7.5 38.256527,6.54582552 40.6833022,7.02291277 C43.1100774,7.50000002 44.5,8.5 44.5,8.5" id="Line" stroke-linecap="square"></path>
                                <path d="M9.5,-0.5 C9.5,-0.5 14.4586481,7.43284501 16.8198638,10.4686937 C19.1253148,13.432845 24.1397276,15.7908401 24.1397276,15.7908401" id="Line" stroke-linecap="square"></path>
                                <path d="M38.6959338,3.6523045 C28.4883372,-0.833650703 30.6406454,4.09795162 19.0293033,4.09795162" id="Path"></path>
                                <path d="M12.3146666,9.03627239 C11.2976472,11.4071936 9.07181242,16.0798049 6.47133973,16.7496807 C5.5373006,16.990287 3.35660818,16.832184 3.74373112,17.7156184 C4.87939765,20.3072677 11.016922,22.9962845 8.69375533,24.6116114 C8.67457685,24.6249464 -0.365678573,25.7643486 1.2676349,28.2097565 C2.54107986,30.1163668 10.8797224,30.3949014 7.051336,34.2232878 C5.46381284,35.810811 1.72755625,31.0638791 0.445883182,32.9071842 C-1.63643924,35.901985 10.4520065,36.776523 3.81528206,43.4132474 C0.851508491,46.377021 7.76289887,43.1091505 6.36292921,45.9012688 C3.70554917,51.2011831 0.407892008,48.8291328 6.40954573,53.0021576 C7.59675639,53.82764 3.93799111,57.2171585 5.38398224,57.2171585 C11.7339716,57.2171585 14.0117355,56.5661298 18.7141394,59.6802455" id="Path"></path>
                            </g>
                        </g>
                        <g id="Oval-36-+-Oval-30" transform="translate(84.000000, 64.000000)">
                            <ellipse id="Oval-36" stroke="#979797" transform="translate(5.500000, 5.000000) rotate(13.000000) translate(-5.500000, -5.000000) " cx="5.5" cy="5" rx="4.5" ry="3"></ellipse>
                            <path d="M5.6186688,7.89341896 C7.70877672,7.3141238 9.78527835,6.20753311 9.42449976,5.85260289 C8.75625194,5.19518766 3.98555995,5.52359902 3.98555995,4.67249851 C3.98555995,3.36189954 7.8278078,2.04306488 5.6186688,2.04306488 C3.4095298,2.04306488 0.718508012,3.29178664 0.718508012,4.67249851 C0.718508012,6.05321039 2.26044093,8.82418675 5.6186688,7.89341896 Z" id="Oval-30" fill="#979797" transform="translate(5.218508, 5.172499) rotate(27.000000) translate(-5.218508, -5.172499) "></path>
                        </g>
                        <g id="Oval-32-+-Line-+-Oval-33-+-Oval-29" transform="translate(33.000000, 45.000000)">
                            <g id="Oval-32-+-Line" stroke="#000000">
                                <ellipse id="Oval-32" fill="#434B70" cx="13" cy="5" rx="4" ry="3"></ellipse>
                                <path d="M0.5,3.5 C0.5,3.5 3.25393286,3.832359 4.69415522,3.5 C7.5872662,2.832359 13.5,0.5 13.5,0.5" id="Line" stroke-linecap="square"></path>
                            </g>
                            <g id="Oval-33-+-Oval-29" transform="translate(6.000000, 0.000000)">
                                <circle id="Oval-33" stroke="#979797" fill="#000000" cx="7" cy="5" r="2"></circle>
                                <ellipse id="Oval-29" stroke="#000000" cx="6.5" cy="5" rx="6.5" ry="4"></ellipse>
                            </g>
                        </g>
                    </g>
                    <path d="M18.5,33.5 L20.4929656,26.4979939 L26.5,32.5" id="Line" stroke="#000000" stroke-linecap="square"></path>
                </g>
                <path d="M215.5,245.5 L215.5,60.5" id="Line-4" stroke="#979797" stroke-linecap="square" sketch:type="MSShapeGroup"></path>
                <g id="Oval-7-+-Oval-8" transform="translate(199.000000, 148.000000)" stroke="#000000" stroke-width="2" fill="#FFFFFF" sketch:type="MSShapeGroup">
                    <ellipse id="Oval-7" cx="11" cy="9" rx="11" ry="9"></ellipse>
                    <ellipse id="Oval-8" cx="16.5" cy="9" rx="5.5" ry="9"></ellipse>
                </g>
                <circle id="Oval-15" opacity="0.904734142" fill="#FFFFFF" sketch:type="MSShapeGroup" cx="89.5" cy="29.6108895" r="1.5"></circle>
                <path d="M195,52 C196.104569,52 197,51.1045695 197,50 C197,48.8954305 196.104569,48 195,48 C193.895431,48 193,48.8954305 193,50 C193,51.1045695 193.895431,52 195,52 Z" id="Oval-18" opacity="0.904734142" fill="#FFFFFF" sketch:type="MSShapeGroup"></path>
                <circle id="Oval-17" opacity="0.904734142" fill="#FFFFFF" sketch:type="MSShapeGroup" cx="300" cy="22.6108895" r="1.5"></circle>
                <circle id="Oval-19" opacity="0.904734142" fill="#FFFFFF" sketch:type="MSShapeGroup" cx="318" cy="155" r="1"></circle>
                <circle id="Oval-23" opacity="0.904734142" fill="#FFFFFF" sketch:type="MSShapeGroup" cx="271" cy="171" r="1"></circle>
                <circle id="Oval-24" opacity="0.904734142" fill="#FFFFFF" sketch:type="MSShapeGroup" cx="194" cy="196" r="1"></circle>
                <circle id="Oval-16" opacity="0.875874534" fill="#FFFFFF" sketch:type="MSShapeGroup" cx="24.5" cy="52.6108895" r="1.5"></circle>
                <circle id="Oval-20" opacity="0.875874534" fill="#FFFFFF" sketch:type="MSShapeGroup" cx="51.9445552" cy="76.0554448" r="1.94455524"></circle>
                <circle id="Oval-21" opacity="0.466884328" fill="#FFFFFF" sketch:type="MSShapeGroup" cx="112.944555" cy="64.1663343" r="1.94455524"></circle>
                <circle id="Oval-25" opacity="0.466884328" fill="#FFFFFF" sketch:type="MSShapeGroup" cx="180.944555" cy="115.444555" r="1.94455524"></circle>
                <circle id="Oval-22" opacity="0.466884328" fill="#FFFFFF" sketch:type="MSShapeGroup" cx="46.0554448" cy="179.166334" r="1.94455524"></circle>
                <circle id="Oval-26" opacity="0.819437966" fill="#FFFFFF" sketch:type="MSShapeGroup" cx="26.4445552" cy="127.944555" r="1.94455524"></circle>
                <path d="M133.696329,101 C125.46422,101 111,106 111,106 C111,106 109.938184,111.014435 109.938184,113.5 C109.938184,116.014435 111,121 111,121 C111,121 124.725447,126 132.588171,126 C140.725447,126 155,121 155,121 C155,121 156.254384,116.063167 156.254384,113.5 C156.254384,111.063167 155,106 155,106 C155,106 141.46422,101 133.696329,101 Z" id="Rectangle-11" stroke="#000000" stroke-width="2" fill="#979797" sketch:type="MSShapeGroup"></path>
            </g>
        </g>
    </g>
</svg>